<svg width="69" height="69" viewBox="0 0 69 69" fill="none" xmlns="http://www.w3.org/2000/svg">
<g clip-path="url(#clip0_82_940)">
<path d="M47.5581 46.3462C46.3532 46.3462 45.1483 46.5872 43.9435 47.0691L39.2445 41.5267L49.9678 13.5737L49.9678 13.4533C50.0883 13.0918 52.1366 4.17576 45.8712 0.199683C45.5098 -0.0412842 45.0278 -0.0412919 44.6664 0.0791992C44.3049 0.199683 43.9435 0.561148 43.823 0.922606L33.4611 32.2492L21.4124 1.52504C21.2919 1.16358 20.9304 0.922607 20.569 0.681632C20.2075 0.561149 19.7256 0.561149 19.4846 0.802124C16.8339 2.36845 12.8578 7.06745 16.5929 14.0557L27.7982 41.7677L23.3402 47.5511C22.1353 47.1896 20.9304 47.0691 19.7256 47.0691C13.7012 47.1896 8.88172 52.2501 9.00221 58.2744C9.1227 64.2988 14.1832 69.1183 20.2075 68.9978C26.2319 68.8773 31.0513 63.8168 30.9309 57.7925C30.9309 55.6237 30.2079 53.5754 29.0031 51.8886C28.5211 51.2862 27.6777 51.1657 27.0753 51.5272C26.4728 52.0091 26.3523 52.8525 26.7138 53.455C27.6777 54.7803 28.1597 56.3466 28.1597 57.913C28.2801 62.4915 24.6655 66.2266 20.087 66.3471C15.5085 66.4676 11.7734 62.8529 11.6529 58.2744C11.5324 53.6959 15.1471 49.9608 19.7256 49.8403C20.9304 49.8403 22.1353 50.0813 23.2197 50.5633C23.5811 50.6838 23.9426 50.6838 24.3041 50.5633C24.6655 50.4428 24.9065 50.2018 25.027 49.8403L30.3284 42.9726C30.5694 42.6111 30.6899 42.1292 30.4489 41.6472L19.0026 13.0918L19.0026 12.9713C16.7134 8.51329 18.2797 5.74209 19.6051 4.29624L32.2562 36.8277C32.4972 37.3097 32.9791 37.6712 33.5816 37.6712C34.184 37.6712 34.6659 37.3097 34.7864 36.7073L45.6303 3.8143C48.281 6.94696 47.3171 12.1279 47.1966 12.8508L36.3528 41.4063C36.2323 41.8882 36.2323 42.3702 36.5937 42.7316L42.2566 49.3584C42.3771 49.7199 42.7386 49.9608 42.9796 50.0813C43.341 50.2018 43.7025 50.2018 44.0639 49.9608C45.1483 49.4789 46.3532 49.1174 47.5581 49.1174C52.1366 48.9969 55.8717 52.6115 55.9922 57.1901C56.1126 61.7686 52.498 65.5037 47.9195 65.6242C43.341 65.7446 39.6059 62.13 39.4854 57.5515C39.4854 55.9852 39.8469 54.4189 40.6903 52.973C40.9313 52.4911 40.9313 51.8886 40.5698 51.4067L35.5094 45.2618C35.0274 44.6594 34.184 44.5389 33.5816 45.0209C32.9791 45.5028 32.8586 46.3462 33.3406 46.9487L38.0396 52.3706C37.1962 53.9369 36.8347 55.7442 36.9552 57.5515C37.0757 63.5759 42.1362 68.3954 48.1605 68.2749C54.1849 68.1544 59.0043 63.0939 58.8838 57.0696C58.6429 50.9247 53.7029 46.1052 47.5581 46.3462Z" fill="#444444"/>
<path d="M19.9666 54.2984C20.6895 54.2984 21.292 53.696 21.292 52.8526C21.292 52.1297 20.6895 51.5272 19.8461 51.5272C16.2315 51.6477 13.3398 54.6599 13.4603 58.2745C13.4603 60.2023 14.4242 62.0096 15.9905 63.2145C16.352 63.4554 16.7134 63.5759 16.9544 63.5759C17.3159 63.5759 17.6773 63.335 18.0388 63.094C18.5208 62.4915 18.4003 61.6481 17.7978 61.1662C16.8339 60.4433 16.352 59.3589 16.2315 58.2745C16.2315 56.1057 17.9183 54.2984 19.9666 54.2984Z" fill="#444444"/>
</g>
<defs>
<clipPath id="clip0_82_940">
<rect width="69" height="69" fill="white"/>
</clipPath>
</defs>
</svg>
