<svg width="400" height="130" viewBox="0 0 400 130" fill="none" xmlns="http://www.w3.org/2000/svg">
<g opacity="0.3">
<path fill-rule="evenodd" clip-rule="evenodd" d="M34.8924 128.154L25.2299 128.154C24.4247 128.154 23.351 128.154 22.2774 127.886L19.325 127.886C18.2514 127.886 16.641 127.349 15.8358 126.007C15.0306 124.665 15.0306 123.591 15.0306 122.518L15.0306 119.565C15.0306 118.76 14.7622 117.955 14.4938 117.15C13.6886 115.808 12.8834 115.539 11.5413 116.344C10.7361 116.881 9.93093 117.418 9.12572 118.223C8.32051 119.028 7.2469 119.834 5.63649 120.102C4.02608 120.37 2.14726 119.565 1.34205 118.223C0.268443 116.881 4.07263e-05 115.539 4.0785e-05 114.197C0.506282 102.722 0.482059 92.0961 0.460987 82.8524C0.448544 77.3935 0.437199 72.4167 0.536855 68.0319L0.536855 64.0059L0.536855 59.9799C0.4372 55.5951 0.448545 50.6183 0.460989 45.1594C0.482062 35.9157 0.506286 25.2895 4.51728e-05 13.8146C0.268447 12.4726 0.536849 11.1306 1.34206 9.78861C2.14726 8.4466 4.02608 7.64139 5.6365 7.90979C7.24691 8.17819 8.32052 8.9834 9.12572 9.78861C9.59644 10.1416 9.96397 10.4431 10.2962 10.7156C10.7216 11.0645 11.0892 11.366 11.5413 11.6674C12.8834 12.741 13.6886 12.2042 14.4938 10.8622L14.4938 10.8622C14.7622 10.057 15.0306 9.25179 15.0306 8.4466L15.0306 5.49417C15.0306 4.42056 15.0306 3.34695 15.8358 2.00494C16.641 0.394526 18.2514 0.126123 19.325 0.126123C20.0639 -0.0586076 20.8029 0.0109481 21.4543 0.0722667C21.7493 0.10004 22.0264 0.126124 22.2774 0.126124L24.9615 0.126124L34.624 0.126124L37.0396 0.126124L39.4552 0.126124L49.1177 0.126125L51.8017 0.126125L54.7541 0.126125C55.8277 0.126125 57.1698 0.66293 58.2434 2.00494C59.0486 3.34695 59.0486 4.42056 59.0486 5.49417L59.0486 8.4466C59.0486 9.25181 59.0486 10.057 59.317 10.8622C60.1222 12.2042 60.9274 12.741 62.2694 11.6674C63.0746 11.399 63.8798 10.5938 64.685 9.78861C65.4902 8.9834 66.5638 8.1782 68.1742 7.9098C69.7847 7.64139 71.6635 8.4466 72.4687 9.78861C73.5423 11.1306 73.8107 12.4726 73.8107 13.8146C73.1578 28.6132 73.2108 42 73.2542 52.9738C73.2643 55.5342 73.2739 57.9633 73.2739 60.2483C73.0055 61.5903 73.0055 62.9323 73.0055 64.2743C73.2739 65.6163 73.2739 66.9583 73.2739 68.3003C73.516 73.6258 73.5943 79.8246 73.6812 86.6997C73.7869 95.0707 73.9054 104.444 74.3475 114.466C74.0791 115.808 73.8107 117.15 73.0055 118.492C72.2003 119.834 70.3215 120.639 68.711 120.37C67.1006 120.102 66.027 119.297 65.2218 118.492C64.7511 118.139 64.3836 117.837 64.0514 117.565C63.6259 117.216 63.2584 116.914 62.8062 116.613C61.4642 115.539 60.659 116.076 59.8538 117.418C59.5854 118.223 59.317 119.028 59.317 119.834L59.317 122.786C59.317 123.86 59.317 124.933 58.5118 126.275C57.7066 127.886 56.0961 128.154 55.0225 128.154C54.2836 128.339 53.5447 128.269 52.8933 128.208C52.5982 128.18 52.3211 128.154 52.0701 128.154L49.3861 128.154L39.7236 128.154L37.308 128.154L34.8924 128.154ZM3.69213 75.4572C4.0109 86.303 4.40551 99.7288 3.75768 114.197C3.75768 116.344 4.83129 117.686 6.1733 117.15C6.7101 117.15 7.51531 116.613 8.32051 116.076L8.58892 115.808C7.78371 110.976 7.24691 89.5041 7.24691 63.7375C7.24691 38.7761 7.51531 17.8407 8.32052 12.2042C8.32052 11.9358 8.05212 11.9358 8.05212 11.9358C7.24691 11.399 6.4417 10.8622 5.9049 10.8622C4.83129 10.5938 3.75768 11.9358 3.75768 13.8146C4.40552 28.283 4.0109 41.7088 3.69213 52.5546C3.61469 55.1893 3.54173 57.6717 3.48927 59.9799L3.48927 64.0059L3.48927 68.0319C3.54173 70.3401 3.61469 72.8225 3.69213 75.4572ZM70.5899 59.9799C70.3215 48.4386 70.0531 31.7976 70.8583 14.083C70.8583 11.9358 69.7847 10.5938 68.7111 10.8622C68.6111 10.9122 68.5019 10.9621 68.3851 11.0156C67.8745 11.2491 67.2192 11.5489 66.5638 12.2042C66.2954 12.4726 65.7586 13.0094 65.2218 13.2778C65.7586 18.3775 66.2954 39.0445 66.2954 64.0059C66.2954 88.9673 66.027 109.903 65.2218 115.002C65.5363 115.317 65.8507 115.539 66.1112 115.723C66.2954 115.854 66.4527 115.965 66.5638 116.076C67.369 116.613 68.1742 117.15 68.711 117.15C69.7847 117.418 70.8583 116.076 70.8583 114.197C70.0531 96.2142 70.3215 79.8416 70.5899 68.0319L70.5899 64.0059L70.5899 59.9799ZM29.7927 114.734L33.0135 115.539C34.6239 115.808 36.2344 116.076 37.8448 116.076C39.4552 116.076 41.334 115.808 42.9444 115.539L46.1653 114.734C47.5073 114.466 48.3125 113.929 48.0441 113.929L47.7757 113.66C47.6645 113.66 47.5073 113.614 47.3231 113.56C47.0626 113.484 46.7481 113.392 46.4337 113.392C46.1451 113.32 45.7789 113.267 45.3665 113.208C44.2445 113.046 42.78 112.835 41.6024 112.05C40.7972 111.245 39.992 110.44 39.7236 109.366C39.1868 108.292 39.4552 106.95 40.2604 105.877C41.4705 104.465 42.8321 103.962 43.8898 103.572C44.2397 103.443 44.5563 103.326 44.8232 103.193C45.8968 102.656 46.4337 101.582 46.7021 100.24C46.9705 98.8982 46.7021 97.8246 45.6284 97.0194C45.2221 96.613 44.7773 96.2451 44.3085 95.8574C43.5389 95.2209 42.7049 94.531 41.8708 93.5302C41.334 92.7249 40.7972 91.9197 40.5288 90.8461C40.5288 89.7725 40.7972 88.4305 41.334 87.6253C42.4076 86.1223 43.8248 85.6499 45.0358 85.2462C45.3386 85.1453 45.6284 85.0486 45.8969 84.9413C46.4337 84.6729 47.2389 84.4045 47.2389 84.4045L47.2389 84.1361C46.9705 83.3309 46.4337 83.0625 45.0916 83.0625L43.2128 83.0625C42.1392 83.0625 41.0656 82.7941 40.7972 81.7204L40.7972 80.3784L40.7972 79.5732C40.7972 79.3048 40.8643 79.0364 40.9314 78.768C40.9985 78.4996 41.0656 78.2312 41.0656 77.9628L41.0656 77.1576L38.65 77.1576C37.308 77.1576 35.966 77.1576 34.624 76.8892C34.8924 77.1576 34.8924 77.6944 34.8924 77.9628C34.8924 78.2312 34.9595 78.4996 35.0266 78.768C35.0937 79.0364 35.1608 79.3048 35.1608 79.5732L35.1608 80.3784C35.1608 80.5686 35.1944 80.7251 35.226 80.8717C35.2836 81.1391 35.3341 81.3738 35.1608 81.7204C34.8924 82.5257 33.8187 83.0625 32.7451 83.0625L30.8663 83.0625C29.7927 83.0625 28.9875 83.3309 28.7191 84.1361C28.4507 84.4045 28.7191 84.4045 28.7191 84.4045C28.7191 84.4045 29.2559 84.6729 30.0611 84.9413C30.3295 85.0486 30.6194 85.1453 30.9222 85.2462C32.1332 85.6499 33.5503 86.1222 34.624 87.6253C35.4292 88.4305 35.6976 89.7725 35.4292 90.8461C35.1608 91.9197 34.624 92.7249 34.0871 93.5302C33.2531 94.531 32.4191 95.2209 31.6494 95.8574C31.1807 96.2451 30.7359 96.613 30.3295 97.0194C29.5243 97.8246 28.9875 98.8982 29.2559 100.24C29.2559 101.582 30.0611 102.656 31.1347 103.193C31.4016 103.326 31.7183 103.443 32.0682 103.572C33.1259 103.962 34.4875 104.465 35.6976 105.877C36.5028 106.95 36.5028 108.292 36.2344 109.366C35.966 110.44 35.1608 111.513 34.3555 112.05C32.7451 113.392 30.5979 113.392 29.5243 113.392L29.5242 113.392C28.7191 113.392 28.4507 113.392 28.1823 113.66C27.9139 113.66 27.9139 113.929 27.9139 113.929C27.9139 113.929 28.7191 114.466 29.7927 114.734ZM30.5915 15.341C31.7134 15.5026 33.178 15.7136 34.3556 16.4987C35.1608 17.0355 35.966 17.8407 36.2344 18.9143C36.5028 19.9879 36.5028 21.3299 36.2344 22.6719C35.0243 24.0837 33.6627 24.5862 32.605 24.9765C32.2551 25.1056 31.9384 25.2225 31.6715 25.3559C30.5979 25.8928 30.0611 26.9664 29.7927 28.3084C29.5243 29.6504 29.7927 30.724 30.8663 31.5292C31.2727 31.9356 31.7175 32.3035 32.1862 32.6912C32.9559 33.3277 33.7899 34.0176 34.624 35.0184C35.1608 35.8236 35.6976 36.6288 35.966 37.7025C35.966 38.7761 35.6976 40.1181 35.1608 40.9233C34.0871 42.4263 32.67 42.8987 31.4589 43.3024C31.1562 43.4033 30.8663 43.5 30.5979 43.6073C30.0611 43.8757 29.2559 44.1441 29.2559 44.1441L29.2559 44.4125C29.5243 45.2177 30.0611 45.4861 31.4031 45.4861L33.2819 45.4861C34.3556 45.4861 35.4292 45.7545 35.6976 46.8281L35.6976 48.1702L35.6976 48.9754C35.6976 49.2438 35.6305 49.5122 35.5634 49.7806C35.4963 50.049 35.4292 50.3174 35.4292 50.5858C35.1608 51.1226 35.1608 51.391 35.1608 51.9278C36.5028 51.6594 37.8447 51.6594 39.1867 51.6594L39.1868 51.6594L41.6024 51.6594C41.334 51.391 41.334 50.8542 41.334 50.5858C41.334 50.3174 41.2669 50.049 41.1998 49.7806C41.1327 49.5122 41.0656 49.2438 41.0656 48.9754L41.0656 48.1702C41.0656 47.98 41.0319 47.8235 41.0004 47.6768C40.9428 47.4095 40.8923 47.1748 41.0656 46.8281C41.334 46.0229 42.4076 45.4861 43.4812 45.4861L45.36 45.4861C46.4337 45.4861 47.2389 45.2177 47.5073 44.4125C47.7757 44.1441 47.5073 44.1441 47.5073 44.1441C47.5073 44.1441 46.9705 43.8757 46.1653 43.6073C45.8969 43.5 45.607 43.4033 45.3042 43.3024C44.0932 42.8987 42.676 42.4263 41.6024 40.9233C40.7972 40.1181 40.5288 38.7761 40.7972 37.7025C41.0656 36.6288 41.6024 35.8236 42.1392 35.0184C42.9733 34.0176 43.8073 33.3277 44.5769 32.6912C45.0457 32.3035 45.4905 31.9356 45.8969 31.5292C46.7021 30.724 47.2389 29.6504 46.9705 28.3084C46.9705 26.9664 46.1653 25.8928 45.0916 25.3559C44.8248 25.2225 44.5081 25.1056 44.1582 24.9765C43.1005 24.5862 41.7389 24.0837 40.5288 22.6719C39.7236 21.5983 39.7236 20.2563 39.992 19.1827C40.2604 18.1091 41.0656 17.0355 41.8708 16.4987C43.4812 15.1567 45.6284 15.1567 46.7021 15.1567C47.5073 15.1567 47.7757 15.1567 48.0441 14.8883C48.3125 14.8883 48.3125 14.6199 48.3125 14.6199C48.3125 14.6199 47.5073 14.083 46.4337 13.8146L43.2128 13.0094C42.9742 12.9753 42.7399 12.9413 42.5093 12.9077C40.9249 12.6772 39.519 12.4726 38.1132 12.4726C36.5028 12.4726 34.624 12.741 33.0135 13.0094L29.7927 13.8146C28.4507 14.083 27.6455 14.6199 27.9139 14.6199L28.1823 14.8883C28.2935 14.8883 28.4507 14.9343 28.6349 14.9883C28.8954 15.0646 29.2099 15.1567 29.5243 15.1567C29.8129 15.2288 30.179 15.2816 30.5915 15.341ZM54.4228 67.5606C53.7075 69.0648 52.352 70.3488 50.9965 71.2525C47.9184 73.3046 44.595 74.1309 42.4323 74.6687C42.3321 74.6936 42.2343 74.7179 42.1392 74.7417C41.1687 74.9843 40.3627 75.1173 39.7707 75.2149C39.053 75.3333 38.65 75.3998 38.65 75.5469C38.65 75.2785 37.308 75.0101 34.624 74.7417C34.5289 74.7179 34.4311 74.6936 34.3309 74.6687C32.1682 74.1309 28.8449 73.3046 25.7667 71.2525C24.4247 70.1788 22.8143 68.5684 22.0091 66.6896C21.2039 64.8108 21.4723 62.3952 23.0827 60.5164C26.3035 56.4903 32.4768 54.6115 38.3816 54.6115C38.4721 54.6154 38.5625 54.6197 38.653 54.6243C38.7414 54.6198 38.8299 54.6157 38.9184 54.6118C44.8232 54.6118 50.9965 56.4906 54.2173 60.5167C55.2909 62.1271 55.8277 64.5427 55.0225 66.4215C54.8544 66.8137 54.6513 67.1942 54.4228 67.5606Z" fill="#FF7A00"/>
<path d="M137.152 17.3501C140.946 18.1212 143.783 19.6267 145.662 21.8666C147.541 24.0698 148.517 26.4198 148.591 28.9168C148.591 28.9535 148.591 28.9902 148.591 29.0269C148.591 29.0637 148.591 29.1004 148.591 29.1371C148.554 32.1481 147.246 34.9021 144.667 37.399C142.125 39.896 138.386 41.1444 133.449 41.1444L110.461 41.1995C109.724 41.1628 109.153 40.9976 108.747 40.7038C108.379 40.41 108.176 40.0796 108.14 39.7124C108.14 39.6757 108.14 39.6389 108.14 39.6022C108.14 39.6022 108.14 39.5839 108.14 39.5471C108.14 39.1799 108.342 38.8311 108.747 38.5006C109.19 38.1334 109.816 37.9498 110.626 37.9498L111.068 37.5643V3.74541C110.258 3.74541 109.613 3.58017 109.134 3.2497C108.692 2.91922 108.434 2.55202 108.361 2.1481C108.324 2.11138 108.305 2.07466 108.305 2.03794C108.305 1.9645 108.305 1.90942 108.305 1.8727C108.305 1.50551 108.471 1.19339 108.803 0.93635C109.171 0.642594 109.705 0.495716 110.405 0.495716H134.831C138.883 0.495716 141.959 1.39535 144.059 3.19461C146.159 4.95716 147.209 6.92167 147.209 9.08813C147.209 10.9608 146.38 12.705 144.722 14.3207C143.065 15.8996 140.541 16.9094 137.152 17.3501ZM131.57 35.9119V21.5361C131.57 20.8384 131.239 20.3244 130.576 19.9939C129.949 19.6634 129.249 19.4982 128.476 19.4982C127.702 19.4982 127.002 19.6818 126.376 20.049C125.749 20.3794 125.436 20.8752 125.436 21.5361C125.436 21.683 125.492 21.8115 125.602 21.9217C125.713 22.0318 125.842 22.142 125.989 22.2521C125.989 22.2521 125.989 22.2705 125.989 22.3072C126.026 22.3072 126.044 22.3072 126.044 22.3072C126.228 22.4174 126.376 22.5459 126.486 22.6928C126.634 22.8029 126.707 22.9498 126.707 23.1334V34.2044C126.707 34.3513 126.634 34.4982 126.486 34.6451C126.376 34.7919 126.247 34.9204 126.099 35.0306C126.063 35.0306 126.026 35.049 125.989 35.0857C125.842 35.1958 125.713 35.306 125.602 35.4162C125.492 35.5263 125.436 35.6548 125.436 35.8017C125.436 36.4994 125.749 37.0135 126.376 37.3439C127.002 37.6377 127.684 37.7846 128.42 37.7846C128.457 37.7846 128.476 37.7846 128.476 37.7846C128.512 37.7846 128.549 37.7846 128.586 37.7846C129.323 37.7479 130.005 37.5643 130.631 37.2338C131.257 36.9033 131.57 36.4627 131.57 35.9119ZM131.57 14.1004V5.83843C131.57 5.14076 131.239 4.62668 130.576 4.29621C129.949 3.96573 129.249 3.80049 128.476 3.80049C127.702 3.80049 127.002 3.98409 126.376 4.35129C125.749 4.68176 125.436 5.17748 125.436 5.83843C125.436 5.98531 125.492 6.11383 125.602 6.22399C125.713 6.33415 125.842 6.44431 125.989 6.55447C126.026 6.55447 126.044 6.55447 126.044 6.55447C126.044 6.55447 126.063 6.57283 126.099 6.60955C126.247 6.71971 126.376 6.82986 126.486 6.94002C126.634 7.05018 126.707 7.19706 126.707 7.38066V12.3929C126.707 12.5398 126.652 12.6683 126.542 12.7785C126.431 12.8886 126.302 12.9988 126.155 13.1089C126.155 13.1089 126.136 13.1273 126.099 13.164C125.915 13.2742 125.749 13.4027 125.602 13.5496C125.492 13.6597 125.436 13.8066 125.436 13.9902C125.436 14.6879 125.749 15.202 126.376 15.5324C127.002 15.8262 127.684 15.9731 128.42 15.9731C128.457 15.9731 128.476 15.9731 128.476 15.9731C128.512 15.9731 128.549 15.9731 128.586 15.9731C129.323 15.9364 130.005 15.7528 130.631 15.4223C131.257 15.0918 131.57 14.6512 131.57 14.1004Z" fill="#FF7A00"/>
<path d="M191.456 39.6022C191.456 39.9694 191.217 40.2999 190.738 40.5936C190.296 40.9241 189.798 41.1077 189.246 41.1444C189.209 41.1444 189.172 41.1444 189.135 41.1444C189.135 41.1444 189.117 41.1444 189.08 41.1444L172.833 41.1995C172.833 41.1628 172.704 41.0894 172.446 40.9792C172.225 40.9058 171.967 40.814 171.673 40.7038C171.341 40.5569 171.046 40.3733 170.788 40.153C170.567 39.9694 170.457 39.7674 170.457 39.5471C170.457 39.1432 170.678 38.7944 171.12 38.5006C171.599 38.1701 172.17 38.0049 172.833 38.0049H174.159L172.999 33.1028H163.162L161.891 38.0049H163.218C163.844 38.0049 164.397 38.1518 164.876 38.4455C165.354 38.7393 165.594 39.1065 165.594 39.5471C165.594 39.951 165.354 40.3182 164.876 40.6487C164.397 40.9792 163.844 41.1444 163.218 41.1444L154.873 41.1995C154.763 41.1628 154.597 41.1077 154.376 41.0343C154.192 40.9976 153.989 40.9241 153.768 40.814C153.436 40.6671 153.142 40.4835 152.884 40.2632C152.626 40.0428 152.497 39.8042 152.497 39.5471C152.497 39.1065 152.736 38.7393 153.215 38.4455C153.694 38.1518 154.247 38.0049 154.873 38.0049H156.255L164.986 3.63525H162.941C162.278 3.63525 161.707 3.48837 161.228 3.19461C160.786 2.86414 160.565 2.47858 160.565 2.03794C160.565 1.59731 160.786 1.23011 161.228 0.93635C161.707 0.642594 162.278 0.495716 162.941 0.495716H177.917C178.58 0.495716 179.133 0.642594 179.575 0.93635C180.054 1.23011 180.293 1.59731 180.293 2.03794L188.583 38.0049H189.08C189.743 38.0049 190.296 38.1701 190.738 38.5006C191.217 38.7944 191.456 39.1432 191.456 39.5471V39.6022ZM172.281 30.1836L169.075 16.2485C169.039 16.0282 168.928 15.8629 168.744 15.7528C168.596 15.6426 168.431 15.5875 168.246 15.5875C168.21 15.5875 168.173 15.5875 168.136 15.5875C168.136 15.5875 168.117 15.6059 168.081 15.6426C167.933 15.6793 167.786 15.7528 167.639 15.8629C167.528 15.9731 167.454 16.1016 167.418 16.2485L163.881 30.1836H172.281Z" fill="#FF7A00"/>
<path d="M229.565 39.4921C229.565 39.7858 229.418 40.0612 229.123 40.3182C228.828 40.5753 228.497 40.7772 228.128 40.9241C227.944 40.9976 227.778 41.0526 227.631 41.0894C227.484 41.1261 227.336 41.1444 227.189 41.1444C225.384 41.1444 223.597 41.1444 221.829 41.1444C220.06 41.1444 218.292 41.1444 216.524 41.1444C215.087 41.1444 214.092 40.5936 213.539 39.4921C212.987 38.4272 212.655 37.2338 212.545 35.9119C212.508 35.508 212.471 35.104 212.434 34.7001C212.434 34.2962 212.434 33.9107 212.434 33.5435C212.434 33.3231 212.434 33.1028 212.434 32.8825C212.434 32.6622 212.453 32.4602 212.489 32.2766C212.489 32.093 212.489 31.9278 212.489 31.7809C212.489 31.5973 212.489 31.4321 212.489 31.2852C212.489 29.743 211.992 28.7515 210.997 28.3109C210.04 27.8703 208.695 27.6683 206.963 27.705V37.5643L207.571 37.8947C208.198 37.8947 208.75 38.06 209.229 38.3905C209.708 38.7209 209.947 39.0698 209.947 39.437C209.947 39.9143 209.708 40.3182 209.229 40.6487C208.75 40.9792 208.198 41.1444 207.571 41.1444L192.706 41.1995C192.006 41.1628 191.435 40.9792 190.993 40.6487C190.551 40.3182 190.33 39.9143 190.33 39.437C190.33 39.0698 190.551 38.7209 190.993 38.3905C191.435 38.06 192.006 37.8947 192.706 37.8947L193.148 37.5643V4.02081C193.001 3.94737 192.853 3.87393 192.706 3.80049C192.559 3.72705 192.393 3.67197 192.209 3.63525C192.172 3.59853 192.117 3.58017 192.043 3.58017C191.969 3.54345 191.895 3.52509 191.822 3.52509C191.417 3.37821 191.048 3.23133 190.717 3.08446C190.422 2.90086 190.274 2.55202 190.274 2.03794C190.274 1.59731 190.496 1.23011 190.938 0.93635C191.38 0.605875 191.932 0.440637 192.595 0.440637H213.153C217.684 0.440637 221.239 1.81763 223.818 4.5716C226.434 7.32558 227.852 10.355 228.073 13.6597C228.11 13.8433 228.128 14.0269 228.128 14.2105C228.128 14.3574 228.128 14.5226 228.128 14.7062C228.128 17.3868 227.263 19.8654 225.531 22.142C223.836 24.4186 221.147 25.8874 217.463 26.5483V26.9339L219.839 27.4296C220.06 27.4663 220.281 27.5214 220.502 27.5949C220.76 27.6683 221.018 27.7601 221.276 27.8703C222.529 28.3109 223.689 28.9535 224.757 29.798C225.826 30.6059 226.452 31.4504 226.636 32.3317C226.673 32.4051 226.692 32.4786 226.692 32.552C226.692 32.6255 226.692 32.6989 226.692 32.7723C226.692 32.8458 226.673 32.9743 226.636 33.1579C226.636 33.3415 226.636 33.5618 226.636 33.8189C226.636 34.0392 226.618 34.2779 226.581 34.5349C226.581 34.7552 226.581 34.9939 226.581 35.2509C226.581 35.2876 226.581 35.3244 226.581 35.3611C226.581 35.3978 226.581 35.4345 226.581 35.4712C226.581 36.0588 226.618 36.5912 226.692 37.0686C226.765 37.5459 226.931 37.8213 227.189 37.8947C227.263 37.9315 227.318 37.9682 227.355 38.0049C227.428 38.0049 227.502 38.0049 227.576 38.0049C228.092 38.1885 228.552 38.3905 228.957 38.6108C229.363 38.8311 229.565 39.1065 229.565 39.437V39.4921ZM212.103 22.3072V6.22399C212.103 5.52632 211.771 5.01224 211.108 4.68176C210.482 4.35128 209.782 4.18605 209.008 4.18605C208.234 4.18605 207.534 4.36964 206.908 4.73684C206.282 5.06732 205.969 5.56303 205.969 6.22399C205.969 6.37087 206.024 6.49939 206.134 6.60955C206.245 6.71971 206.374 6.82986 206.521 6.94002C206.521 6.94002 206.521 6.95838 206.521 6.9951C206.558 6.9951 206.577 6.9951 206.577 6.9951C206.761 7.10526 206.908 7.23378 207.019 7.38066C207.166 7.49082 207.24 7.6377 207.24 7.8213V20.5447C207.24 20.6916 207.166 20.8384 207.019 20.9853C206.908 21.1322 206.779 21.2607 206.632 21.3709C206.448 21.481 206.282 21.6095 206.134 21.7564C206.024 21.8666 205.969 22.0135 205.969 22.1971C205.969 22.8947 206.282 23.4088 206.908 23.7393C207.534 24.0331 208.216 24.1799 208.953 24.1799C208.99 24.1799 209.008 24.1799 209.008 24.1799C209.045 24.1799 209.082 24.1799 209.119 24.1799C209.855 24.1432 210.537 23.9596 211.163 23.6291C211.79 23.2987 212.103 22.858 212.103 22.3072Z" fill="#FF7A00"/>
<path d="M262.569 17.3501C266.363 18.1212 269.2 19.6267 271.079 21.8666C272.958 24.0698 273.934 26.4198 274.008 28.9168C274.008 28.9535 274.008 28.9902 274.008 29.0269C274.008 29.0637 274.008 29.1004 274.008 29.1371C273.971 32.1481 272.663 34.9021 270.084 37.399C267.542 39.896 263.803 41.1444 258.866 41.1444L235.877 41.1995C235.141 41.1628 234.57 40.9976 234.164 40.7038C233.796 40.41 233.593 40.0796 233.557 39.7124C233.557 39.6757 233.557 39.6389 233.557 39.6022C233.557 39.6022 233.557 39.5839 233.557 39.5471C233.557 39.1799 233.759 38.8311 234.164 38.5006C234.606 38.1334 235.233 37.9498 236.043 37.9498L236.485 37.5643V3.74541C235.675 3.74541 235.03 3.58017 234.551 3.2497C234.109 2.91922 233.851 2.55202 233.778 2.1481C233.741 2.11138 233.722 2.07466 233.722 2.03794C233.722 1.9645 233.722 1.90942 233.722 1.8727C233.722 1.50551 233.888 1.19339 234.22 0.93635C234.588 0.642594 235.122 0.495716 235.822 0.495716H260.248C264.3 0.495716 267.376 1.39535 269.476 3.19461C271.576 4.95716 272.626 6.92167 272.626 9.08813C272.626 10.9608 271.797 12.705 270.139 14.3207C268.482 15.8996 265.958 16.9094 262.569 17.3501ZM256.987 35.9119V21.5361C256.987 20.8384 256.656 20.3244 255.993 19.9939C255.366 19.6634 254.666 19.4982 253.893 19.4982C253.119 19.4982 252.419 19.6818 251.793 20.049C251.166 20.3794 250.853 20.8752 250.853 21.5361C250.853 21.683 250.909 21.8115 251.019 21.9217C251.13 22.0318 251.259 22.142 251.406 22.2521C251.406 22.2521 251.406 22.2705 251.406 22.3072C251.443 22.3072 251.461 22.3072 251.461 22.3072C251.645 22.4174 251.793 22.5459 251.903 22.6928C252.051 22.8029 252.124 22.9498 252.124 23.1334V34.2044C252.124 34.3513 252.051 34.4982 251.903 34.6451C251.793 34.7919 251.664 34.9204 251.516 35.0306C251.48 35.0306 251.443 35.049 251.406 35.0857C251.259 35.1958 251.13 35.306 251.019 35.4162C250.909 35.5263 250.853 35.6548 250.853 35.8017C250.853 36.4994 251.166 37.0135 251.793 37.3439C252.419 37.6377 253.101 37.7846 253.837 37.7846C253.874 37.7846 253.893 37.7846 253.893 37.7846C253.929 37.7846 253.966 37.7846 254.003 37.7846C254.74 37.7479 255.422 37.5643 256.048 37.2338C256.674 36.9033 256.987 36.4627 256.987 35.9119ZM256.987 14.1004V5.83843C256.987 5.14076 256.656 4.62668 255.993 4.29621C255.366 3.96573 254.666 3.80049 253.893 3.80049C253.119 3.80049 252.419 3.98409 251.793 4.35129C251.166 4.68176 250.853 5.17748 250.853 5.83843C250.853 5.98531 250.909 6.11383 251.019 6.22399C251.13 6.33415 251.259 6.44431 251.406 6.55447C251.443 6.55447 251.461 6.55447 251.461 6.55447C251.461 6.55447 251.48 6.57283 251.516 6.60955C251.664 6.71971 251.793 6.82986 251.903 6.94002C252.051 7.05018 252.124 7.19706 252.124 7.38066V12.3929C252.124 12.5398 252.069 12.6683 251.958 12.7785C251.848 12.8886 251.719 12.9988 251.572 13.1089C251.572 13.1089 251.553 13.1273 251.516 13.164C251.332 13.2742 251.166 13.4027 251.019 13.5496C250.909 13.6597 250.853 13.8066 250.853 13.9902C250.853 14.6879 251.166 15.202 251.793 15.5324C252.419 15.8262 253.101 15.9731 253.837 15.9731C253.874 15.9731 253.893 15.9731 253.893 15.9731C253.929 15.9731 253.966 15.9731 254.003 15.9731C254.74 15.9364 255.422 15.7528 256.048 15.4223C256.674 15.0918 256.987 14.6512 256.987 14.1004Z" fill="#FF7A00"/>
<path d="M308.805 35.0306L307.755 39.6022C307.718 39.6756 307.681 39.7674 307.645 39.8776C307.645 40.0245 307.626 40.153 307.589 40.2632C307.442 40.6671 307.202 41.0343 306.871 41.3648C306.539 41.6952 306.06 41.8605 305.434 41.8605C305.102 41.8605 304.789 41.8421 304.495 41.8054C304.2 41.7687 303.924 41.7136 303.666 41.6402C303.592 41.6034 303.518 41.5667 303.445 41.53C303.371 41.53 303.297 41.53 303.224 41.53C302.855 41.4566 302.468 41.3831 302.063 41.3097C301.695 41.2362 301.234 41.1995 300.682 41.1995L279.903 41.2546C279.903 41.2179 279.774 41.1444 279.517 41.0343C279.296 40.9608 279.038 40.8507 278.743 40.7038C278.411 40.5569 278.117 40.3733 277.859 40.153C277.638 39.9694 277.527 39.7674 277.527 39.5471C277.527 39.1432 277.748 38.7944 278.19 38.5006C278.669 38.1701 279.24 38.0049 279.903 38.0049L280.732 37.7295V4.07589L279.903 3.74541C279.867 3.74541 279.719 3.70869 279.461 3.63525C279.24 3.56181 279.001 3.45165 278.743 3.30477C278.448 3.1579 278.172 2.99266 277.914 2.80906C277.656 2.58874 277.527 2.35006 277.527 2.09302C277.527 1.65239 277.748 1.28519 278.19 0.991433C278.669 0.697674 279.24 0.550795 279.903 0.550795H298.25C298.434 0.550795 298.637 0.550795 298.858 0.550795C299.079 0.514076 299.3 0.477357 299.521 0.440637C299.632 0.403916 299.742 0.385555 299.853 0.385555C300 0.348836 300.129 0.312117 300.24 0.275398C300.461 0.238678 300.663 0.201958 300.847 0.165237C301.032 0.128517 301.161 0.0917981 301.234 0.0550789C301.271 0.0550789 301.308 0.0550789 301.345 0.0550789C301.418 0.0183596 301.474 0 301.511 0C301.547 0 301.584 0 301.621 0C301.695 0 301.75 0 301.787 0C301.934 0 302.082 0.0183596 302.229 0.0550789C302.376 0.0550789 302.542 0.0734385 302.726 0.110158C303.168 0.257037 303.592 0.477356 303.997 0.771114C304.439 1.06487 304.753 1.41371 304.937 1.81763L307.423 6.60955C307.497 6.71971 307.552 6.82986 307.589 6.94002C307.626 7.05018 307.626 7.16034 307.589 7.2705C307.589 7.56426 307.46 7.85802 307.202 8.15178C306.981 8.40881 306.668 8.59241 306.263 8.70257C306.189 8.73929 306.097 8.77601 305.987 8.81273C305.913 8.81273 305.839 8.81273 305.766 8.81273C305.655 8.84945 305.545 8.86781 305.434 8.86781C305.36 8.86781 305.287 8.86781 305.213 8.86781C304.734 8.86781 304.292 8.79437 303.887 8.64749C303.482 8.46389 303.205 8.24358 303.058 7.98654L300.405 3.74541H296.426L295.929 4.18605V16.7442H300.184C300.147 16.6707 300.129 16.6157 300.129 16.5789C300.129 16.5055 300.129 16.4504 300.129 16.4137C300.129 16.3403 300.129 16.2852 300.129 16.2485C300.166 16.175 300.184 16.1016 300.184 16.0282C300.258 15.8078 300.387 15.6059 300.571 15.4223C300.792 15.202 301.013 15.0367 301.234 14.9266C301.382 14.8531 301.511 14.8164 301.621 14.8164C301.768 14.7797 301.916 14.7613 302.063 14.7613C302.137 14.7613 302.21 14.7613 302.284 14.7613C302.358 14.7613 302.432 14.7797 302.505 14.8164C302.8 14.8531 303.076 14.9266 303.334 15.0367C303.592 15.1102 303.813 15.2203 303.997 15.3672C304.145 15.4406 304.255 15.5141 304.329 15.5875C304.403 15.6242 304.458 15.6793 304.495 15.7528L308.142 21.5361C308.179 21.5728 308.197 21.6279 308.197 21.7013C308.234 21.7381 308.252 21.7748 308.252 21.8115C308.289 21.8482 308.308 21.9033 308.308 21.9767C308.308 22.0135 308.308 22.0502 308.308 22.0869C308.308 22.3807 308.179 22.6744 307.921 22.9682C307.7 23.2252 307.35 23.4272 306.871 23.5741C306.797 23.6108 306.705 23.6475 306.595 23.6842C306.521 23.6842 306.447 23.6842 306.373 23.6842C306.263 23.7209 306.152 23.7393 306.042 23.7393C305.968 23.7393 305.895 23.7393 305.821 23.7393C305.342 23.7393 304.9 23.6475 304.495 23.4639C304.126 23.2803 303.85 23.06 303.666 22.8029L302.395 20.9302C302.174 20.4896 301.787 20.2142 301.234 20.104C300.718 19.9939 299.926 19.9388 298.858 19.9388H295.929V38.0049H300.074C300.7 38.0049 301.197 37.8947 301.566 37.6744C301.934 37.4541 302.21 37.1971 302.395 36.9033C302.432 36.8666 302.45 36.8299 302.45 36.7931C302.487 36.7564 302.524 36.7197 302.56 36.683L304.439 33.7087C304.624 33.4149 304.918 33.1946 305.324 33.0477C305.729 32.9009 306.171 32.8274 306.65 32.8274C306.834 32.8274 307 32.8274 307.147 32.8274C307.331 32.8274 307.497 32.8641 307.645 32.9376C308.087 33.0845 308.4 33.3048 308.584 33.5985C308.768 33.8923 308.86 34.2044 308.86 34.5349C308.86 34.6083 308.86 34.7001 308.86 34.8103C308.86 34.8837 308.842 34.9572 308.805 35.0306Z" fill="#FF7A00"/>
<path d="M351.744 39.4921C351.744 39.7858 351.597 40.0612 351.302 40.3182C351.007 40.5753 350.676 40.7772 350.307 40.9241C350.123 40.9976 349.957 41.0526 349.81 41.0894C349.663 41.1261 349.515 41.1444 349.368 41.1444C347.563 41.1444 345.776 41.1444 344.008 41.1444C342.239 41.1444 340.471 41.1444 338.703 41.1444C337.266 41.1444 336.271 40.5936 335.718 39.4921C335.166 38.4272 334.834 37.2338 334.724 35.9119C334.687 35.508 334.65 35.104 334.613 34.7001C334.613 34.2962 334.613 33.9107 334.613 33.5435C334.613 33.3231 334.613 33.1028 334.613 32.8825C334.613 32.6622 334.632 32.4602 334.669 32.2766C334.669 32.093 334.669 31.9278 334.669 31.7809C334.669 31.5973 334.669 31.4321 334.669 31.2852C334.669 29.743 334.171 28.7515 333.176 28.3109C332.219 27.8703 330.874 27.6683 329.142 27.705V37.5643L329.75 37.8947C330.377 37.8947 330.929 38.06 331.408 38.3905C331.887 38.7209 332.126 39.0698 332.126 39.437C332.126 39.9143 331.887 40.3182 331.408 40.6487C330.929 40.9792 330.377 41.1444 329.75 41.1444L314.885 41.1995C314.185 41.1628 313.614 40.9792 313.172 40.6487C312.73 40.3182 312.509 39.9143 312.509 39.437C312.509 39.0698 312.73 38.7209 313.172 38.3905C313.614 38.06 314.185 37.8947 314.885 37.8947L315.327 37.5643V4.02081C315.18 3.94737 315.032 3.87393 314.885 3.80049C314.738 3.72705 314.572 3.67197 314.388 3.63525C314.351 3.59853 314.296 3.58017 314.222 3.58017C314.148 3.54345 314.075 3.52509 314.001 3.52509C313.596 3.37821 313.227 3.23133 312.896 3.08446C312.601 2.90086 312.454 2.55202 312.454 2.03794C312.454 1.59731 312.675 1.23011 313.117 0.93635C313.559 0.605875 314.111 0.440637 314.774 0.440637H335.332C339.863 0.440637 343.418 1.81763 345.997 4.5716C348.613 7.32558 350.031 10.355 350.252 13.6597C350.289 13.8433 350.307 14.0269 350.307 14.2105C350.307 14.3574 350.307 14.5226 350.307 14.7062C350.307 17.3868 349.442 19.8654 347.71 22.142C346.015 24.4186 343.326 25.8874 339.642 26.5483V26.9339L342.018 27.4296C342.239 27.4663 342.46 27.5214 342.681 27.5949C342.939 27.6683 343.197 27.7601 343.455 27.8703C344.708 28.3109 345.868 28.9535 346.937 29.798C348.005 30.6059 348.631 31.4504 348.815 32.3317C348.852 32.4051 348.871 32.4786 348.871 32.552C348.871 32.6255 348.871 32.6989 348.871 32.7723C348.871 32.8458 348.852 32.9743 348.815 33.1579C348.815 33.3415 348.815 33.5618 348.815 33.8189C348.815 34.0392 348.797 34.2779 348.76 34.5349C348.76 34.7552 348.76 34.9939 348.76 35.2509C348.76 35.2876 348.76 35.3244 348.76 35.3611C348.76 35.3978 348.76 35.4345 348.76 35.4712C348.76 36.0588 348.797 36.5912 348.871 37.0686C348.944 37.5459 349.11 37.8213 349.368 37.8947C349.442 37.9315 349.497 37.9682 349.534 38.0049C349.607 38.0049 349.681 38.0049 349.755 38.0049C350.271 38.1885 350.731 38.3905 351.136 38.6108C351.542 38.8311 351.744 39.1065 351.744 39.437V39.4921ZM334.282 22.3072V6.22399C334.282 5.52632 333.95 5.01224 333.287 4.68176C332.661 4.35128 331.961 4.18605 331.187 4.18605C330.413 4.18605 329.713 4.36964 329.087 4.73684C328.461 5.06732 328.148 5.56303 328.148 6.22399C328.148 6.37087 328.203 6.49939 328.313 6.60955C328.424 6.71971 328.553 6.82986 328.7 6.94002C328.7 6.94002 328.7 6.95838 328.7 6.9951C328.737 6.9951 328.756 6.9951 328.756 6.9951C328.94 7.10526 329.087 7.23378 329.198 7.38066C329.345 7.49082 329.419 7.6377 329.419 7.8213V20.5447C329.419 20.6916 329.345 20.8384 329.198 20.9853C329.087 21.1322 328.958 21.2607 328.811 21.3709C328.627 21.481 328.461 21.6095 328.313 21.7564C328.203 21.8666 328.148 22.0135 328.148 22.1971C328.148 22.8947 328.461 23.4088 329.087 23.7393C329.713 24.0331 330.395 24.1799 331.132 24.1799C331.169 24.1799 331.187 24.1799 331.187 24.1799C331.224 24.1799 331.261 24.1799 331.298 24.1799C332.034 24.1432 332.716 23.9596 333.342 23.6291C333.969 23.2987 334.282 22.858 334.282 22.3072Z" fill="#FF7A00"/>
<path d="M152.047 109.54C151.023 115.356 148.162 119.983 143.464 123.422C138.766 126.861 133.376 128.55 127.293 128.487C126.871 128.487 126.449 128.487 126.028 128.487C125.666 128.487 125.275 128.456 124.853 128.393C124.612 128.393 124.341 128.362 124.04 128.299C123.799 128.299 123.528 128.268 123.227 128.206C120.216 127.893 117.325 127.268 114.554 126.33C111.783 125.392 109.766 123.766 108.501 121.452C108.38 121.265 108.29 120.921 108.23 120.421C108.17 119.858 108.14 119.264 108.14 118.639C108.14 118.138 108.14 117.669 108.14 117.232C108.2 116.794 108.26 116.45 108.32 116.2C108.621 115.137 109.525 114.261 111.031 113.574C112.597 112.886 114.253 112.542 116 112.542C116.12 112.542 116.24 112.542 116.361 112.542C116.542 112.542 116.692 112.542 116.813 112.542C119.101 112.667 120.878 113.355 122.143 114.605C123.408 115.856 124.341 117.2 124.944 118.639C125.124 119.076 125.275 119.514 125.395 119.952C125.516 120.389 125.636 120.796 125.757 121.171C125.937 121.984 126.239 122.578 126.66 122.953C127.142 123.266 127.684 123.422 128.286 123.422C128.527 123.422 128.768 123.391 129.009 123.328C129.31 123.266 129.581 123.203 129.822 123.141C130.846 122.703 131.78 121.953 132.623 120.89C133.526 119.827 133.978 118.67 133.978 117.419C133.918 117.044 133.827 116.7 133.707 116.387C133.647 116.012 133.556 115.668 133.436 115.356C132.653 113.355 131.268 111.385 129.28 109.447C127.293 107.508 125.154 105.601 122.866 103.725C122.022 102.975 121.149 102.256 120.246 101.568C119.342 100.817 118.499 100.098 117.716 99.4105C115.066 97.1594 112.928 94.1892 111.302 90.5C109.736 86.7481 108.862 82.9025 108.682 78.9631C108.682 78.7755 108.682 78.5879 108.682 78.4004C108.682 78.1502 108.682 77.9314 108.682 77.7438C108.682 71.991 110.488 66.801 114.102 62.1738C117.776 57.5465 123.829 55.2329 132.261 55.2329C133.225 55.2329 134.249 55.3267 135.333 55.5143C136.478 55.6394 137.622 55.8582 138.766 56.1709C141.718 56.9838 144.428 58.2031 146.897 59.8289C149.367 61.4547 150.601 63.2368 150.601 65.1752C150.601 66.6759 149.818 67.8953 148.252 68.8332C146.686 69.7712 144.97 70.2714 143.103 70.334C143.043 70.334 142.952 70.334 142.832 70.334C142.772 70.334 142.711 70.334 142.651 70.334C141.386 70.334 140.212 70.1151 139.128 69.6774C138.044 69.2397 137.2 68.5206 136.598 67.5201C136.417 67.2074 136.267 66.8948 136.146 66.5821C136.026 66.207 135.936 65.863 135.875 65.5504C135.875 65.4253 135.845 65.3315 135.785 65.269C135.785 65.144 135.755 65.0189 135.695 64.8938C135.634 64.4561 135.544 64.0497 135.424 63.6745C135.303 63.2368 135.122 62.8616 134.881 62.5489C134.46 62.0487 133.888 61.6735 133.165 61.4234C132.502 61.1733 131.78 61.0482 130.997 61.0482C130.936 61.0482 130.876 61.0482 130.816 61.0482C130.816 61.0482 130.786 61.0482 130.726 61.0482C129.039 61.1108 127.594 61.7048 126.389 62.8303C125.245 63.8933 125.335 65.1127 126.66 66.4883C126.781 66.6134 126.901 66.7385 127.022 66.8635C127.142 66.9886 127.293 67.1137 127.473 67.2387C129.762 69.5523 132.021 71.7722 134.249 73.8982C136.478 75.9617 138.586 77.9939 140.573 79.9949C144.006 83.6216 146.837 87.3422 149.066 91.1565C151.354 94.9083 152.499 99.2542 152.499 104.194C152.499 105.007 152.469 105.882 152.408 106.82C152.348 107.696 152.228 108.602 152.047 109.54Z" fill="#FF7A00"/>
<path d="M220.11 123.704C220.11 124.454 219.719 125.079 218.936 125.579C218.153 126.142 217.249 126.424 216.225 126.424L191.832 126.517C190.688 126.455 189.754 126.142 189.032 125.579C188.309 125.079 187.948 124.423 187.948 123.61C187.948 122.984 188.309 122.39 189.032 121.828C189.754 121.265 190.688 120.983 191.832 120.983L192.284 120.421V88.7178H180.539V120.514L181.352 121.077C182.376 121.077 183.28 121.359 184.063 121.921C184.846 122.484 185.237 123.078 185.237 123.704C185.237 124.516 184.846 125.173 184.063 125.673C183.28 126.236 182.376 126.517 181.352 126.517L156.959 126.611C155.815 126.549 154.881 126.236 154.159 125.673C153.436 125.173 153.075 124.516 153.075 123.704C153.075 123.078 153.436 122.484 154.159 121.921C154.881 121.359 155.815 121.077 156.959 121.077L157.592 120.514V63.2993L156.869 62.7365C155.785 62.7365 154.851 62.4864 154.068 61.9862C153.346 61.4859 152.984 60.8294 152.984 60.0165C152.984 59.2661 153.346 58.6408 154.068 58.1406C154.851 57.5778 155.785 57.2964 156.869 57.2964H181.262C182.346 57.2964 183.25 57.5778 183.972 58.1406C184.755 58.6408 185.147 59.2661 185.147 60.0165C185.147 60.8294 184.755 61.4859 183.972 61.9862C183.25 62.4864 182.346 62.7365 181.262 62.7365L180.539 63.2993V84.0281H192.284V63.2055L191.561 62.7365C190.598 62.7365 189.724 62.4864 188.941 61.9862C188.158 61.4859 187.767 60.8294 187.767 60.0165C187.767 59.2036 188.158 58.547 188.941 58.0468C189.724 57.5465 190.598 57.2964 191.561 57.2964H215.954C217.099 57.2964 218.032 57.5465 218.755 58.0468C219.478 58.547 219.839 59.2036 219.839 60.0165C219.839 60.8294 219.478 61.4859 218.755 61.9862C218.032 62.4864 217.099 62.7365 215.954 62.7365L215.322 63.2055V120.421L216.225 120.983C217.249 120.983 218.153 121.265 218.936 121.828C219.719 122.39 220.11 122.984 220.11 123.61V123.704Z" fill="#FF7A00"/>
<path d="M287.722 91.8131C287.722 101.818 284.741 110.385 278.778 117.513C272.815 124.641 265.618 128.206 257.186 128.206C248.694 128.206 241.466 124.641 235.503 117.513C229.541 110.385 226.559 101.818 226.559 91.8131C226.559 81.6832 229.541 73.054 235.503 65.9256C241.466 58.7971 248.694 55.2329 257.186 55.2329C265.618 55.2329 272.815 58.7971 278.778 65.9256C284.741 73.054 287.722 81.6832 287.722 91.8131ZM263.239 118.451C263.239 118.138 263.119 117.888 262.878 117.701C262.697 117.45 262.486 117.232 262.245 117.044C261.944 116.856 261.673 116.638 261.432 116.387C261.251 116.137 261.161 115.887 261.161 115.637V65.4566C261.161 64.2685 260.619 63.3931 259.535 62.8303C258.511 62.2676 257.336 61.9862 256.011 61.9862C255.951 61.9862 255.891 61.9862 255.831 61.9862C255.831 61.9862 255.801 61.9862 255.74 61.9862C254.596 62.0487 253.512 62.3614 252.488 62.9241C251.524 63.4869 251.042 64.3311 251.042 65.4566C251.042 65.5817 251.073 65.738 251.133 65.9256C251.193 66.0506 251.283 66.1757 251.404 66.3008C251.464 66.4258 251.554 66.5821 251.675 66.7697C251.856 66.8948 252.006 67.0199 252.127 67.1449C252.428 67.395 252.669 67.6139 252.849 67.8015C253.09 67.9891 253.211 68.0829 253.211 68.0829V118.545C253.211 119.545 253.723 120.327 254.747 120.89C255.771 121.39 256.885 121.671 258.089 121.734C258.15 121.734 258.18 121.734 258.18 121.734C258.24 121.734 258.3 121.734 258.36 121.734C259.625 121.734 260.739 121.484 261.703 120.983C262.727 120.421 263.239 119.577 263.239 118.451Z" fill="#FF7A00"/>
<path d="M352.326 80.4639C352.326 86.7794 349.916 92.2195 345.098 96.7842C340.28 101.349 334.498 103.631 327.752 103.631H317.633V120.421L318.627 120.983C319.651 120.983 320.555 121.265 321.337 121.828C322.12 122.39 322.512 122.984 322.512 123.61C322.512 124.423 322.12 125.11 321.337 125.673C320.555 126.236 319.651 126.517 318.627 126.517L294.234 126.611C293.09 126.549 292.156 126.236 291.433 125.673C290.771 125.11 290.44 124.423 290.44 123.61C290.44 122.984 290.771 122.39 291.433 121.828C292.156 121.265 293.09 120.983 294.234 120.983L295.047 120.421V63.2993L294.144 62.7365C293.06 62.7365 292.126 62.4864 291.343 61.9862C290.62 61.4234 290.259 60.7356 290.259 59.9227C290.259 59.1723 290.62 58.5157 291.343 57.953C292.126 57.3902 293.06 57.1088 294.144 57.1088H327.842C334.588 57.1088 340.34 59.3912 345.098 63.9559C349.916 68.5206 352.326 74.0232 352.326 80.4639ZM326.035 94.4394V66.9573C326.035 65.7693 325.493 64.8938 324.409 64.3311C323.385 63.7683 322.241 63.4869 320.976 63.4869C319.711 63.4869 318.567 63.7996 317.543 64.4249C316.519 64.9876 316.007 65.8318 316.007 66.9573C316.007 67.2074 316.098 67.4263 316.278 67.6139C316.459 67.8015 316.67 67.9891 316.911 68.1767C316.971 68.1767 317.001 68.1767 317.001 68.1767C317.001 68.1767 317.031 68.2079 317.091 68.2705C317.332 68.4581 317.543 68.6456 317.724 68.8332C317.965 69.0208 318.085 69.2709 318.085 69.5836V91.4379C318.085 91.688 317.965 91.9382 317.724 92.1883C317.543 92.4384 317.332 92.6572 317.091 92.8448C316.79 93.0324 316.519 93.2513 316.278 93.5014C316.098 93.689 316.007 93.9391 316.007 94.2518C316.007 95.4398 316.519 96.3153 317.543 96.878C318.567 97.3783 319.681 97.6284 320.886 97.6284C320.946 97.6284 320.976 97.6284 320.976 97.6284C321.036 97.6284 321.097 97.6284 321.157 97.6284C322.361 97.5659 323.476 97.2532 324.5 96.6904C325.523 96.1277 326.035 95.3773 326.035 94.4394Z" fill="#FF7A00"/>
<circle cx="386.919" cy="115.988" r="13.0814" fill="#FF7A00"/>
</g>
</svg>
