<svg width="602" height="194" viewBox="0 0 602 194" fill="none" xmlns="http://www.w3.org/2000/svg">
<g opacity="0.3">
<path fill-rule="evenodd" clip-rule="evenodd" d="M52.4508 192.633L37.9259 192.633C36.7155 192.633 35.1017 192.633 33.4878 192.23L29.0497 192.23C27.4358 192.23 25.015 191.423 23.8046 189.406C22.5942 187.388 22.5942 185.774 22.5942 184.161L22.5942 179.722C22.5942 178.512 22.1907 177.302 21.7872 176.091C20.5768 174.074 19.3664 173.67 17.3491 174.881L17.349 174.881C16.1386 175.688 14.9282 176.495 13.7179 177.705C12.5075 178.915 10.8936 180.126 8.47282 180.529C6.05201 180.933 3.22774 179.722 2.01733 177.705C0.403465 175.688 -7.59137e-06 173.67 -7.50319e-06 171.653C0.760987 154.404 0.724573 138.43 0.692896 124.535C0.674189 116.329 0.65713 108.848 0.806934 102.257L0.806934 96.2046L0.806934 90.1526C0.657131 83.5613 0.674191 76.0801 0.692899 67.8742C0.724576 53.9788 0.760992 38.0054 -9.07281e-07 20.7562L6.72212e-06 20.7561C0.40348 18.7388 0.806953 16.7215 2.01734 14.7042C3.22774 12.6868 6.05202 11.4764 8.47282 11.8799C10.8936 12.2833 12.5075 13.4938 13.7179 14.7042C14.4255 15.2349 14.978 15.688 15.4774 16.0976C16.1169 16.6222 16.6694 17.0753 17.3491 17.5284C19.3664 19.1423 20.5769 18.3354 21.7872 16.318C22.1907 15.1076 22.5942 13.8972 22.5942 12.6868L22.5942 8.24867C22.5942 6.6348 22.5942 5.02093 23.8046 3.0036C25.015 0.58279 27.4358 0.179323 29.0497 0.179323C30.1604 -0.0983684 31.2712 0.00618911 32.2504 0.0983644C32.6939 0.140114 33.1105 0.179323 33.4878 0.179323L37.5225 0.179323L52.0473 0.179324L55.6785 0.179324L59.3097 0.179324L73.8346 0.179325L77.8692 0.179325L82.3074 0.179325C83.9213 0.179325 85.9386 0.98626 87.5525 3.0036C88.7629 5.02094 88.7629 6.63481 88.7629 8.24868L88.7629 12.6868C88.7629 13.8972 88.7629 15.1076 89.1663 16.318C90.3767 18.3354 91.5871 19.1423 93.6045 17.5284C94.8149 17.125 96.0253 15.9146 97.2357 14.7042L97.2357 14.7042C98.4461 13.4938 100.06 12.2834 102.481 11.8799C104.902 11.4764 107.726 12.6868 108.936 14.7042C110.55 16.7215 110.954 18.7388 110.954 20.7562C109.972 43.0016 110.052 63.125 110.117 79.6209C110.132 83.4698 110.147 87.1212 110.147 90.5561C109.743 92.5734 109.743 94.5907 109.743 96.6081C110.147 98.6254 110.147 100.643 110.147 102.66C110.511 110.665 110.628 119.984 110.759 130.318C110.918 142.902 111.096 156.993 111.761 172.056C111.357 174.074 110.954 176.091 109.743 178.109C108.533 180.126 105.709 181.336 103.288 180.933C100.867 180.529 99.253 179.319 98.0426 178.109C97.335 177.578 96.7826 177.125 96.2832 176.715C95.6436 176.191 95.0911 175.737 94.4114 175.284C92.3941 173.67 91.1837 174.477 89.9733 176.495C89.5698 177.705 89.1663 178.915 89.1663 180.126L89.1663 184.564C89.1663 186.178 89.1663 187.792 87.9559 189.809C86.7455 192.23 84.3247 192.633 82.7108 192.633C81.6001 192.911 80.4893 192.806 79.5101 192.714C79.0666 192.673 78.65 192.633 78.2727 192.633L74.238 192.633L59.7132 192.633L56.082 192.633L52.4508 192.633ZM5.55001 113.418C6.0292 129.722 6.62238 149.904 5.64854 171.653C5.64854 174.881 7.26241 176.898 9.27975 176.091C10.0867 176.091 11.2971 175.284 12.5075 174.477L12.911 174.074C11.7006 166.811 10.8936 134.534 10.8936 95.8011C10.8936 58.2787 11.2971 26.8082 12.5075 18.3354C12.5075 17.9319 12.104 17.9319 12.104 17.9319C10.8936 17.125 9.68323 16.318 8.87629 16.318C7.26242 15.9146 5.64854 17.9319 5.64854 20.7562C6.62238 42.5052 6.0292 62.6873 5.55001 78.9909C5.43361 82.9514 5.32393 86.683 5.24508 90.1526L5.24507 96.2046L5.24507 102.257C5.32393 105.726 5.43361 109.458 5.55001 113.418ZM106.112 90.1526C105.709 72.8035 105.305 47.7885 106.515 21.1596C106.515 17.9319 104.902 15.9146 103.288 16.318C103.137 16.3931 102.973 16.4682 102.798 16.5485C102.03 16.8997 101.045 17.3503 100.06 18.3354C99.6565 18.7388 98.8496 19.5458 98.0426 19.9492C98.8496 27.6151 99.6565 58.6821 99.6565 96.2046C99.6565 133.727 99.253 165.198 98.0426 172.863C98.5153 173.336 98.988 173.67 99.3796 173.947C99.6565 174.143 99.8928 174.31 100.06 174.477C101.27 175.284 102.481 176.091 103.288 176.091C104.902 176.495 106.515 174.477 106.515 171.653C105.305 144.621 105.709 120.009 106.112 102.257L106.112 96.2046L106.112 90.1526ZM44.7849 172.46L49.6265 173.67L49.6268 173.67C52.0475 174.074 54.4682 174.477 56.8889 174.477C59.3097 174.477 62.134 174.074 64.5548 173.67L69.3964 172.46C71.4138 172.057 72.6242 171.25 72.2207 171.25L71.8172 170.846C71.6501 170.846 71.4138 170.777 71.1369 170.696C70.7453 170.581 70.2726 170.443 69.7999 170.443C69.3661 170.334 68.8157 170.255 68.1957 170.166C66.5091 169.923 64.3076 169.605 62.5375 168.425C61.3271 167.215 60.1167 166.004 59.7132 164.391C58.9063 162.777 59.3097 160.759 60.5201 159.146C62.3391 157.023 64.386 156.268 65.9759 155.681C66.5019 155.487 66.9779 155.311 67.3791 155.111C68.993 154.304 69.7999 152.69 70.2034 150.673C70.6068 148.655 70.2034 147.042 68.5895 145.831C67.9786 145.22 67.31 144.667 66.6054 144.084C65.4485 143.128 64.1947 142.091 62.9409 140.586C62.134 139.376 61.3271 138.165 60.9236 136.551C60.9236 134.937 61.3271 132.92 62.134 131.71C63.7479 129.45 65.8782 128.74 67.6986 128.133C68.1537 127.982 68.5895 127.836 68.993 127.675C69.7999 127.272 71.0103 126.868 71.0103 126.868L71.0103 126.465C70.6068 125.254 69.7999 124.851 67.7826 124.851L64.9583 124.851C63.3444 124.851 61.7305 124.447 61.3271 122.833L61.3271 120.816L61.3271 119.606C61.3271 119.202 61.4279 118.799 61.5288 118.395C61.6297 117.992 61.7305 117.588 61.7305 117.185L61.7305 115.975L58.0993 115.975C56.082 115.975 54.0647 115.975 52.0473 115.571C52.4508 115.975 52.4508 116.781 52.4508 117.185C52.4508 117.588 52.5517 117.992 52.6525 118.395C52.7534 118.799 52.8543 119.202 52.8543 119.606L52.8543 120.816C52.8543 121.102 52.9049 121.337 52.9523 121.558C53.0388 121.96 53.1148 122.312 52.8543 122.833C52.4508 124.044 50.8369 124.851 49.223 124.851L46.3988 124.851C44.7849 124.851 43.5745 125.254 43.171 126.465C42.7676 126.868 43.171 126.868 43.171 126.868C43.171 126.868 43.978 127.272 45.1884 127.675C45.5918 127.836 46.0276 127.982 46.4827 128.133C48.3032 128.74 50.4335 129.45 52.0473 131.71C53.2577 132.92 53.6612 134.937 53.2577 136.551C52.8542 138.165 52.0473 139.376 51.2404 140.586C49.9866 142.091 48.7329 143.128 47.5759 144.084C46.8714 144.667 46.2027 145.22 45.5918 145.831C44.3814 147.042 43.5745 148.655 43.978 150.673C43.978 152.69 45.1884 154.304 46.8022 155.111C47.2034 155.311 47.6794 155.487 48.2054 155.681C49.7954 156.268 51.8422 157.023 53.6612 159.146C54.8716 160.759 54.8716 162.777 54.4681 164.391C54.0647 166.004 52.8543 167.618 51.6438 168.425C49.223 170.443 45.9953 170.443 44.3814 170.443L44.3813 170.443C43.171 170.443 42.7675 170.443 42.3641 170.846C41.9606 170.846 41.9606 171.25 41.9606 171.25C41.9606 171.25 43.171 172.057 44.7849 172.46ZM45.9856 23.0506C47.6722 23.2936 49.8737 23.6108 51.6439 24.7908C52.8543 25.5978 54.0647 26.8082 54.4681 28.4221C54.8716 30.0359 54.8716 32.0533 54.4681 34.0706C52.6491 36.1928 50.6023 36.9481 49.0124 37.5349C48.4864 37.729 48.0104 37.9047 47.6092 38.1053C45.9953 38.9122 45.1884 40.5261 44.7849 42.5434C44.3814 44.5608 44.7849 46.1746 46.3988 47.385C47.0096 47.9959 47.6783 48.549 48.3829 49.1317C49.5398 50.0886 50.7936 51.1256 52.0473 52.6301C52.8543 53.8405 53.6612 55.0509 54.0647 56.6648C54.0647 58.2786 53.6612 60.296 52.8543 61.5064C51.2404 63.7658 49.1101 64.4759 47.2896 65.0827C46.8345 65.2344 46.3988 65.3797 45.9953 65.5411C45.1884 65.9445 43.978 66.348 43.978 66.348L43.978 66.7515C44.3814 67.9619 45.1884 68.3653 47.2057 68.3653L50.03 68.3653C51.6438 68.3653 53.2577 68.7688 53.6612 70.3827L53.6612 72.4L53.6612 73.6104C53.6612 74.0139 53.5603 74.4174 53.4595 74.8208C53.3586 75.2243 53.2577 75.6278 53.2577 76.0312C52.8543 76.8382 52.8543 77.2416 52.8543 78.0486C54.8716 77.6451 56.8889 77.6451 58.9062 77.6451L58.9063 77.6451L62.5375 77.6451C62.134 77.2416 62.134 76.4347 62.134 76.0312C62.134 75.6278 62.0331 75.2243 61.9323 74.8208C61.8314 74.4174 61.7305 74.0139 61.7305 73.6104L61.7305 72.4C61.7305 72.1142 61.6799 71.8789 61.6325 71.6585C61.5459 71.2566 61.47 70.9038 61.7305 70.3827C62.134 69.1723 63.7479 68.3653 65.3617 68.3653L68.186 68.3653C69.7999 68.3653 71.0103 67.9619 71.4138 66.7515C71.8172 66.348 71.4138 66.348 71.4138 66.348C71.4138 66.348 70.6068 65.9445 69.3964 65.5411C68.993 65.3797 68.5572 65.2344 68.1021 65.0827C66.2817 64.4759 64.1513 63.7658 62.5375 61.5064C61.3271 60.296 60.9236 58.2786 61.3271 56.6648C61.7305 55.0509 62.5375 53.8405 63.3444 52.6301C64.5982 51.1256 65.8519 50.0886 67.0088 49.1317C67.7134 48.549 68.3821 47.9959 68.993 47.385C70.2034 46.1746 71.0103 44.5608 70.6068 42.5434C70.6068 40.5261 69.3964 38.9122 67.7826 38.1053C67.3814 37.9047 66.9054 37.729 66.3793 37.5349C64.7894 36.9481 62.7426 36.1928 60.9236 34.0706C59.7132 32.4567 59.7132 30.4394 60.1167 28.8255C60.5201 27.2117 61.7305 25.5978 62.9409 24.7908C65.3618 22.7735 68.5895 22.7735 70.2034 22.7735C71.4138 22.7735 71.8172 22.7735 72.2207 22.37C72.6242 22.37 72.6242 21.9666 72.6242 21.9666C72.6242 21.9666 71.4138 21.1596 69.7999 20.7562L64.9583 19.5458C64.5995 19.4945 64.2473 19.4433 63.9008 19.3929C61.519 19.0463 59.4057 18.7388 57.2924 18.7388C54.8716 18.7388 52.0473 19.1423 49.6265 19.5458L44.7849 20.7562C42.7676 21.1596 41.5572 21.9666 41.9606 21.9666L42.3641 22.37C42.5312 22.37 42.7676 22.4393 43.0445 22.5204C43.436 22.6351 43.9087 22.7735 44.3814 22.7735C44.8152 22.882 45.3656 22.9613 45.9856 23.0506ZM81.8107 101.546C80.7358 103.808 78.6974 105.739 76.6589 107.098C72.0318 110.183 67.0361 111.425 63.7851 112.234C63.6344 112.271 63.4875 112.308 63.3445 112.343C61.8855 112.708 60.6739 112.908 59.7841 113.055C58.7052 113.233 58.0994 113.333 58.0994 113.554C58.0994 113.15 56.0821 112.747 52.0474 112.343C51.9044 112.308 51.7575 112.271 51.6068 112.234C48.3557 111.425 43.3601 110.183 38.733 107.098C36.7156 105.485 34.2948 103.064 33.0844 100.239C31.874 97.4152 32.2775 93.7839 34.6983 90.9597C39.5399 84.9077 48.8196 82.0834 57.6959 82.0834C57.8299 82.0892 57.9639 82.0955 58.0979 82.1024C58.2329 82.0955 58.3678 82.0891 58.5028 82.0832C67.3791 82.0832 76.6588 84.9075 81.5004 90.9595C83.1143 93.3803 83.9213 97.0115 82.7109 99.8358C82.4585 100.425 82.1536 100.996 81.8107 101.546Z" fill="#FF7A00"/>
<path d="M206.116 26.2546C211.822 27.4215 216.087 29.6996 218.913 33.0891C221.738 36.423 223.206 39.9792 223.316 43.7576C223.316 43.8132 223.316 43.8688 223.316 43.9243C223.316 43.9799 223.316 44.0355 223.316 44.091C223.261 48.6474 221.295 52.8148 217.417 56.5932C213.595 60.3717 207.972 62.2609 200.549 62.2609L165.982 62.3442C164.874 62.2887 164.015 62.0386 163.406 61.5941C162.852 61.1496 162.547 60.6495 162.492 60.0938C162.492 60.0383 162.492 59.9827 162.492 59.9271C162.492 59.9271 162.492 59.8994 162.492 59.8438C162.492 59.2881 162.797 58.7603 163.406 58.2602C164.071 57.7045 165.013 57.4267 166.231 57.4267L166.896 56.8433V5.66767C165.677 5.66767 164.708 5.41762 163.988 4.91753C163.323 4.41745 162.935 3.86179 162.824 3.25057C162.769 3.19501 162.741 3.13944 162.741 3.08388C162.741 2.97275 162.741 2.8894 162.741 2.83383C162.741 2.27818 162.991 1.80588 163.489 1.41692C164.043 0.972399 164.846 0.750139 165.899 0.750139H202.626C208.72 0.750139 213.345 2.11149 216.503 4.83418C219.66 7.50132 221.239 10.4741 221.239 13.7524C221.239 16.5862 219.993 19.2256 217.5 21.6705C215.007 24.0598 211.213 25.5878 206.116 26.2546ZM197.724 54.3428V32.589C197.724 31.5333 197.225 30.7554 196.228 30.2553C195.286 29.7552 194.234 29.5052 193.07 29.5052C191.907 29.5052 190.855 29.783 189.913 30.3386C188.971 30.8387 188.5 31.5889 188.5 32.589C188.5 32.8113 188.583 33.0058 188.75 33.1725C188.916 33.3392 189.11 33.5059 189.331 33.6726C189.331 33.6726 189.331 33.7003 189.331 33.7559C189.387 33.7559 189.414 33.7559 189.414 33.7559C189.691 33.9226 189.913 34.1171 190.079 34.3393C190.301 34.506 190.411 34.7283 190.411 35.0061V51.759C190.411 51.9813 190.301 52.2036 190.079 52.4258C189.913 52.6481 189.719 52.8426 189.497 53.0093C189.442 53.0093 189.387 53.037 189.331 53.0926C189.11 53.2593 188.916 53.426 188.75 53.5927C188.583 53.7594 188.5 53.9539 188.5 54.1761C188.5 55.2319 188.971 56.0098 189.913 56.5099C190.855 56.9544 191.879 57.1767 192.987 57.1767C193.043 57.1767 193.07 57.1767 193.07 57.1767C193.126 57.1767 193.181 57.1767 193.237 57.1767C194.345 57.1211 195.369 56.8433 196.311 56.3432C197.253 55.8431 197.724 55.1763 197.724 54.3428ZM197.724 21.3371V8.83488C197.724 7.77914 197.225 7.00123 196.228 6.50114C195.286 6.00106 194.234 5.75101 193.07 5.75101C191.907 5.75101 190.855 6.02884 189.913 6.58449C188.971 7.08458 188.5 7.83471 188.5 8.83488C188.5 9.05715 188.583 9.25162 188.75 9.41832C188.916 9.58501 189.11 9.75171 189.331 9.91841C189.387 9.91841 189.414 9.91841 189.414 9.91841C189.414 9.91841 189.442 9.94619 189.497 10.0018C189.719 10.1684 189.913 10.3351 190.079 10.5018C190.301 10.6685 190.411 10.8908 190.411 11.1686V18.7533C190.411 18.9755 190.328 19.17 190.162 19.3367C189.996 19.5034 189.802 19.6701 189.581 19.8368C189.581 19.8368 189.553 19.8646 189.497 19.9202C189.22 20.0868 188.971 20.2813 188.75 20.5036C188.583 20.6703 188.5 20.8925 188.5 21.1704C188.5 22.2261 188.971 23.004 189.913 23.5041C190.855 23.9486 191.879 24.1709 192.987 24.1709C193.043 24.1709 193.07 24.1709 193.07 24.1709C193.126 24.1709 193.181 24.1709 193.237 24.1709C194.345 24.1153 195.369 23.8375 196.311 23.3374C197.253 22.8373 197.724 22.1705 197.724 21.3371Z" fill="#FF7A00"/>
<path d="M287.771 59.9271C287.771 60.4828 287.411 60.9829 286.691 61.4274C286.026 61.9275 285.278 62.2053 284.447 62.2609C284.392 62.2609 284.336 62.2609 284.281 62.2609C284.281 62.2609 284.253 62.2609 284.198 62.2609L259.769 62.3442C259.769 62.2887 259.575 62.1775 259.187 62.0108C258.854 61.8997 258.467 61.7608 258.024 61.5941C257.525 61.3718 257.082 61.094 256.694 60.7606C256.362 60.4828 256.195 60.1772 256.195 59.8438C256.195 59.2326 256.528 58.7047 257.193 58.2602C257.913 57.7601 258.771 57.51 259.769 57.51H261.763L260.018 50.0921H245.227L243.316 57.51H245.31C246.252 57.51 247.083 57.7323 247.803 58.1768C248.523 58.6214 248.883 59.177 248.883 59.8438C248.883 60.455 248.523 61.0107 247.803 61.5107C247.083 62.0108 246.252 62.2609 245.31 62.2609L232.763 62.3442C232.597 62.2887 232.348 62.2053 232.015 62.0942C231.738 62.0386 231.434 61.9275 231.101 61.7608C230.603 61.5385 230.16 61.2607 229.772 60.9273C229.384 60.5939 229.19 60.2327 229.19 59.8438C229.19 59.177 229.55 58.6214 230.27 58.1768C230.99 57.7323 231.821 57.51 232.763 57.51H234.84L247.969 5.50097H244.895C243.898 5.50097 243.039 5.27871 242.319 4.83418C241.654 4.33409 241.322 3.75066 241.322 3.08388C241.322 2.41709 241.654 1.86144 242.319 1.41692C243.039 0.972399 243.898 0.750139 244.895 0.750139H267.413C268.41 0.750139 269.241 0.972399 269.906 1.41692C270.626 1.86144 270.986 2.41709 270.986 3.08388L283.45 57.51H284.198C285.195 57.51 286.026 57.7601 286.691 58.2602C287.411 58.7047 287.771 59.2326 287.771 59.8438V59.9271ZM258.938 45.6746L254.118 24.5876C254.063 24.2542 253.897 24.0042 253.62 23.8375C253.398 23.6708 253.149 23.5875 252.872 23.5875C252.816 23.5875 252.761 23.5875 252.706 23.5875C252.706 23.5875 252.678 23.6152 252.622 23.6708C252.401 23.7264 252.179 23.8375 251.958 24.0042C251.792 24.1709 251.681 24.3654 251.625 24.5876L246.307 45.6746H258.938Z" fill="#FF7A00"/>
<path d="M345.074 59.7604C345.074 60.205 344.852 60.6217 344.409 61.0107C343.966 61.3996 343.467 61.7052 342.913 61.9275C342.636 62.0386 342.387 62.122 342.165 62.1775C341.944 62.2331 341.722 62.2609 341.501 62.2609C338.786 62.2609 336.1 62.2609 333.441 62.2609C330.782 62.2609 328.123 62.2609 325.464 62.2609C323.303 62.2609 321.807 61.4274 320.977 59.7604C320.146 58.149 319.647 56.3432 319.481 54.3428C319.425 53.7316 319.37 53.1204 319.315 52.5092C319.315 51.898 319.315 51.3145 319.315 50.7589C319.315 50.4255 319.315 50.0921 319.315 49.7587C319.315 49.4253 319.342 49.1197 319.398 48.8419C319.398 48.564 319.398 48.314 319.398 48.0917C319.398 47.8139 319.398 47.5639 319.398 47.3416C319.398 45.0079 318.65 43.5076 317.154 42.8408C315.714 42.174 313.692 41.8684 311.088 41.924V56.8433L312.002 57.3433C312.944 57.3433 313.775 57.5934 314.495 58.0935C315.215 58.5936 315.575 59.1214 315.575 59.6771C315.575 60.3994 315.215 61.0107 314.495 61.5107C313.775 62.0108 312.944 62.2609 312.002 62.2609L289.65 62.3442C288.598 62.2887 287.739 62.0108 287.074 61.5107C286.41 61.0107 286.077 60.3994 286.077 59.6771C286.077 59.1214 286.41 58.5936 287.074 58.0935C287.739 57.5934 288.598 57.3433 289.65 57.3433L290.315 56.8433V6.0844C290.093 5.97327 289.872 5.86214 289.65 5.75101C289.429 5.63988 289.179 5.55653 288.902 5.50097C288.847 5.4454 288.764 5.41762 288.653 5.41762C288.542 5.36206 288.432 5.33427 288.321 5.33427C287.711 5.11201 287.158 4.88975 286.659 4.66749C286.216 4.38966 285.994 3.86179 285.994 3.08388C285.994 2.41709 286.327 1.86144 286.991 1.41692C287.656 0.916834 288.487 0.666792 289.484 0.666792H320.395C327.209 0.666792 332.554 2.75049 336.432 6.91788C340.365 11.0853 342.498 15.6694 342.83 20.6703C342.885 20.9481 342.913 21.2259 342.913 21.5038C342.913 21.726 342.913 21.9761 342.913 22.2539C342.913 26.3102 341.611 30.0608 339.008 33.5059C336.46 36.9509 332.416 39.1735 326.876 40.1737V40.7571L330.449 41.5073C330.782 41.5628 331.114 41.6462 331.446 41.7573C331.834 41.8684 332.222 42.0073 332.61 42.174C334.493 42.8408 336.238 43.8132 337.844 45.0912C339.451 46.3136 340.393 47.5916 340.67 48.9252C340.725 49.0363 340.753 49.1475 340.753 49.2586C340.753 49.3697 340.753 49.4809 340.753 49.592C340.753 49.7031 340.725 49.8976 340.67 50.1754C340.67 50.4533 340.67 50.7867 340.67 51.1756C340.67 51.509 340.642 51.8702 340.587 52.2591C340.587 52.5925 340.587 52.9537 340.587 53.3427C340.587 53.3982 340.587 53.4538 340.587 53.5093C340.587 53.5649 340.587 53.6205 340.587 53.676C340.587 54.5651 340.642 55.3708 340.753 56.0931C340.864 56.8155 341.113 57.2322 341.501 57.3433C341.611 57.3989 341.694 57.4545 341.75 57.51C341.861 57.51 341.971 57.51 342.082 57.51C342.858 57.7879 343.55 58.0935 344.16 58.4269C344.769 58.7603 345.074 59.177 345.074 59.6771V59.7604ZM318.816 33.7559V9.41832C318.816 8.36258 318.318 7.58466 317.32 7.08458C316.379 6.58449 315.326 6.33444 314.163 6.33444C313 6.33444 311.947 6.61227 311.005 7.16792C310.064 7.66801 309.593 8.41814 309.593 9.41832C309.593 9.64058 309.676 9.83506 309.842 10.0018C310.008 10.1684 310.202 10.3351 310.424 10.5018C310.424 10.5018 310.424 10.5296 310.424 10.5852C310.479 10.5852 310.507 10.5852 310.507 10.5852C310.784 10.7519 311.005 10.9464 311.172 11.1686C311.393 11.3353 311.504 11.5576 311.504 11.8354V31.0888C311.504 31.311 311.393 31.5333 311.172 31.7556C311.005 31.9778 310.811 32.1723 310.59 32.339C310.313 32.5057 310.064 32.7002 309.842 32.9224C309.676 33.0891 309.593 33.3114 309.593 33.5892C309.593 34.6449 310.064 35.4229 311.005 35.9229C311.947 36.3675 312.972 36.5897 314.08 36.5897C314.135 36.5897 314.163 36.5897 314.163 36.5897C314.218 36.5897 314.274 36.5897 314.329 36.5897C315.437 36.5342 316.462 36.2563 317.404 35.7562C318.345 35.2562 318.816 34.5894 318.816 33.7559Z" fill="#FF7A00"/>
<path d="M394.699 26.2546C400.405 27.4215 404.67 29.6996 407.496 33.0891C410.321 36.423 411.789 39.9792 411.9 43.7576C411.9 43.8132 411.9 43.8688 411.9 43.9243C411.9 43.9799 411.9 44.0355 411.9 44.091C411.844 48.6474 409.878 52.8148 406 56.5932C402.178 60.3717 396.555 62.2609 389.132 62.2609L354.565 62.3442C353.457 62.2887 352.599 62.0386 351.989 61.5941C351.435 61.1496 351.131 60.6495 351.075 60.0938C351.075 60.0383 351.075 59.9827 351.075 59.9271C351.075 59.9271 351.075 59.8994 351.075 59.8438C351.075 59.2881 351.38 58.7603 351.989 58.2602C352.654 57.7045 353.596 57.4267 354.814 57.4267L355.479 56.8433V5.66767C354.26 5.66767 353.291 5.41762 352.571 4.91753C351.906 4.41745 351.518 3.86179 351.408 3.25057C351.352 3.19501 351.324 3.13944 351.324 3.08388C351.324 2.97275 351.324 2.8894 351.324 2.83383C351.324 2.27818 351.574 1.80588 352.072 1.41692C352.626 0.972399 353.429 0.750139 354.482 0.750139H391.209C397.303 0.750139 401.928 2.11149 405.086 4.83418C408.243 7.50132 409.822 10.4741 409.822 13.7524C409.822 16.5862 408.576 19.2256 406.083 21.6705C403.59 24.0598 399.796 25.5878 394.699 26.2546ZM386.307 54.3428V32.589C386.307 31.5333 385.808 30.7554 384.811 30.2553C383.869 29.7552 382.817 29.5052 381.654 29.5052C380.49 29.5052 379.438 29.783 378.496 30.3386C377.554 30.8387 377.083 31.5889 377.083 32.589C377.083 32.8113 377.166 33.0058 377.333 33.1725C377.499 33.3392 377.693 33.5059 377.914 33.6726C377.914 33.6726 377.914 33.7003 377.914 33.7559C377.97 33.7559 377.997 33.7559 377.997 33.7559C378.274 33.9226 378.496 34.1171 378.662 34.3393C378.884 34.506 378.995 34.7283 378.995 35.0061V51.759C378.995 51.9813 378.884 52.2036 378.662 52.4258C378.496 52.6481 378.302 52.8426 378.081 53.0093C378.025 53.0093 377.97 53.037 377.914 53.0926C377.693 53.2593 377.499 53.426 377.333 53.5927C377.166 53.7594 377.083 53.9539 377.083 54.1761C377.083 55.2319 377.554 56.0098 378.496 56.5099C379.438 56.9544 380.463 57.1767 381.57 57.1767C381.626 57.1767 381.654 57.1767 381.654 57.1767C381.709 57.1767 381.764 57.1767 381.82 57.1767C382.928 57.1211 383.952 56.8433 384.894 56.3432C385.836 55.8431 386.307 55.1763 386.307 54.3428ZM386.307 21.3371V8.83488C386.307 7.77914 385.808 7.00123 384.811 6.50114C383.869 6.00106 382.817 5.75101 381.654 5.75101C380.49 5.75101 379.438 6.02884 378.496 6.58449C377.554 7.08458 377.083 7.83471 377.083 8.83488C377.083 9.05715 377.166 9.25162 377.333 9.41832C377.499 9.58501 377.693 9.75171 377.914 9.91841C377.97 9.91841 377.997 9.91841 377.997 9.91841C377.997 9.91841 378.025 9.94619 378.081 10.0018C378.302 10.1684 378.496 10.3351 378.662 10.5018C378.884 10.6685 378.995 10.8908 378.995 11.1686V18.7533C378.995 18.9755 378.911 19.17 378.745 19.3367C378.579 19.5034 378.385 19.6701 378.164 19.8368C378.164 19.8368 378.136 19.8646 378.081 19.9202C377.804 20.0868 377.554 20.2813 377.333 20.5036C377.166 20.6703 377.083 20.8925 377.083 21.1704C377.083 22.2261 377.554 23.004 378.496 23.5041C379.438 23.9486 380.463 24.1709 381.57 24.1709C381.626 24.1709 381.654 24.1709 381.654 24.1709C381.709 24.1709 381.764 24.1709 381.82 24.1709C382.928 24.1153 383.952 23.8375 384.894 23.3374C385.836 22.8373 386.307 22.1705 386.307 21.3371Z" fill="#FF7A00"/>
<path d="M464.222 53.0093L462.644 59.9271C462.588 60.0383 462.533 60.1772 462.477 60.3439C462.477 60.5661 462.45 60.7606 462.394 60.9273C462.173 61.5385 461.813 62.0942 461.314 62.5943C460.816 63.0944 460.095 63.3444 459.154 63.3444C458.655 63.3444 458.184 63.3166 457.741 63.261C457.298 63.2055 456.882 63.1221 456.495 63.011C456.384 62.9554 456.273 62.8999 456.162 62.8443C456.052 62.8443 455.941 62.8443 455.83 62.8443C455.276 62.7332 454.694 62.622 454.085 62.5109C453.531 62.3998 452.839 62.3442 452.008 62.3442L420.765 62.4276C420.765 62.372 420.571 62.2609 420.183 62.0942C419.851 61.983 419.463 61.8164 419.02 61.5941C418.521 61.3718 418.078 61.094 417.69 60.7606C417.358 60.4828 417.192 60.1772 417.192 59.8438C417.192 59.2326 417.524 58.7047 418.189 58.2602C418.909 57.7601 419.767 57.51 420.765 57.51L422.011 57.0933V6.16775L420.765 5.66767C420.709 5.66767 420.488 5.6121 420.1 5.50097C419.767 5.38984 419.407 5.22314 419.02 5.00088C418.576 4.77862 418.161 4.52858 417.773 4.25075C417.385 3.91736 417.192 3.55618 417.192 3.16723C417.192 2.50044 417.524 1.94479 418.189 1.50027C418.909 1.05575 419.767 0.833486 420.765 0.833486H448.352C448.629 0.833486 448.933 0.833486 449.266 0.833486C449.598 0.777921 449.93 0.722357 450.263 0.666792C450.429 0.611224 450.595 0.58344 450.761 0.58344C450.983 0.527876 451.177 0.472311 451.343 0.416747C451.675 0.361182 451.98 0.305616 452.257 0.250048C452.534 0.194484 452.728 0.138919 452.839 0.0833544C452.894 0.0833544 452.949 0.0833544 453.005 0.0833544C453.116 0.0277899 453.199 7.62939e-06 453.254 7.62939e-06C453.309 7.62939e-06 453.365 7.62939e-06 453.42 7.62939e-06C453.531 7.62939e-06 453.614 7.62939e-06 453.67 7.62939e-06C453.891 7.62939e-06 454.113 0.0277899 454.334 0.0833544C454.556 0.0833544 454.805 0.111137 455.082 0.166701C455.747 0.388963 456.384 0.722355 456.993 1.16688C457.658 1.6114 458.129 2.13927 458.406 2.75049L462.145 10.0018C462.256 10.1684 462.339 10.3351 462.394 10.5018C462.45 10.6685 462.45 10.8352 462.394 11.0019C462.394 11.4464 462.2 11.891 461.813 12.3355C461.48 12.7245 461.009 13.0023 460.4 13.169C460.289 13.2245 460.151 13.2801 459.985 13.3357C459.874 13.3357 459.763 13.3357 459.652 13.3357C459.486 13.3912 459.32 13.419 459.154 13.419C459.043 13.419 458.932 13.419 458.821 13.419C458.101 13.419 457.436 13.3079 456.827 13.0856C456.218 12.8078 455.802 12.4744 455.581 12.0855L451.592 5.66767H445.609L444.862 6.33444V25.3378H451.26C451.204 25.2266 451.177 25.1433 451.177 25.0877C451.177 24.9766 451.177 24.8932 451.177 24.8377C451.177 24.7265 451.177 24.6432 451.177 24.5876C451.232 24.4765 451.26 24.3654 451.26 24.2542C451.371 23.9208 451.565 23.6152 451.841 23.3374C452.174 23.004 452.506 22.754 452.839 22.5873C453.06 22.4762 453.254 22.4206 453.42 22.4206C453.642 22.365 453.863 22.3372 454.085 22.3372C454.196 22.3372 454.307 22.3372 454.417 22.3372C454.528 22.3372 454.639 22.365 454.75 22.4206C455.193 22.4762 455.608 22.5873 455.996 22.754C456.384 22.8651 456.716 23.0318 456.993 23.2541C457.215 23.3652 457.381 23.4763 457.492 23.5875C457.603 23.643 457.686 23.7264 457.741 23.8375L463.225 32.589C463.281 32.6446 463.308 32.7279 463.308 32.8391C463.364 32.8946 463.391 32.9502 463.391 33.0058C463.447 33.0613 463.475 33.1447 463.475 33.2558C463.475 33.3114 463.475 33.3669 463.475 33.4225C463.475 33.867 463.281 34.3116 462.893 34.7561C462.561 35.145 462.034 35.4506 461.314 35.6729C461.203 35.7285 461.065 35.784 460.899 35.8396C460.788 35.8396 460.677 35.8396 460.566 35.8396C460.4 35.8952 460.234 35.9229 460.068 35.9229C459.957 35.9229 459.846 35.9229 459.735 35.9229C459.015 35.9229 458.35 35.784 457.741 35.5062C457.187 35.2284 456.772 34.895 456.495 34.506L454.584 31.6722C454.251 31.0054 453.67 30.5887 452.839 30.422C452.063 30.2553 450.872 30.1719 449.266 30.1719H444.862V57.51H451.094C452.035 57.51 452.783 57.3433 453.337 57.01C453.891 56.6766 454.307 56.2876 454.584 55.8431C454.639 55.7875 454.667 55.732 454.667 55.6764C454.722 55.6208 454.777 55.5653 454.833 55.5097L457.658 51.0089C457.935 50.5644 458.378 50.231 458.988 50.0087C459.597 49.7865 460.262 49.6753 460.982 49.6753C461.259 49.6753 461.508 49.6753 461.73 49.6753C462.007 49.6753 462.256 49.7309 462.477 49.842C463.142 50.0643 463.613 50.3977 463.89 50.8422C464.167 51.2867 464.305 51.759 464.305 52.2591C464.305 52.3703 464.305 52.5092 464.305 52.6759C464.305 52.787 464.278 52.8981 464.222 53.0093Z" fill="#FF7A00"/>
<path d="M528.788 59.7604C528.788 60.205 528.566 60.6217 528.123 61.0107C527.68 61.3996 527.181 61.7052 526.628 61.9275C526.351 62.0386 526.101 62.122 525.88 62.1775C525.658 62.2331 525.436 62.2609 525.215 62.2609C522.501 62.2609 519.814 62.2609 517.155 62.2609C514.496 62.2609 511.837 62.2609 509.178 62.2609C507.017 62.2609 505.522 61.4274 504.691 59.7604C503.86 58.149 503.361 56.3432 503.195 54.3428C503.14 53.7316 503.084 53.1204 503.029 52.5092C503.029 51.898 503.029 51.3145 503.029 50.7589C503.029 50.4255 503.029 50.0921 503.029 49.7587C503.029 49.4253 503.057 49.1197 503.112 48.8419C503.112 48.564 503.112 48.314 503.112 48.0917C503.112 47.8139 503.112 47.5639 503.112 47.3416C503.112 45.0079 502.364 43.5076 500.869 42.8408C499.428 42.174 497.406 41.8684 494.803 41.924V56.8433L495.717 57.3433C496.658 57.3433 497.489 57.5934 498.21 58.0935C498.93 58.5936 499.29 59.1214 499.29 59.6771C499.29 60.3994 498.93 61.0107 498.21 61.5107C497.489 62.0108 496.658 62.2609 495.717 62.2609L473.365 62.3442C472.312 62.2887 471.453 62.0108 470.789 61.5107C470.124 61.0107 469.792 60.3994 469.792 59.6771C469.792 59.1214 470.124 58.5936 470.789 58.0935C471.453 57.5934 472.312 57.3433 473.365 57.3433L474.029 56.8433V6.0844C473.808 5.97327 473.586 5.86214 473.365 5.75101C473.143 5.63988 472.894 5.55653 472.617 5.50097C472.561 5.4454 472.478 5.41762 472.368 5.41762C472.257 5.36206 472.146 5.33427 472.035 5.33427C471.426 5.11201 470.872 4.88975 470.373 4.66749C469.93 4.38966 469.708 3.86179 469.708 3.08388C469.708 2.41709 470.041 1.86144 470.706 1.41692C471.37 0.916834 472.201 0.666792 473.198 0.666792H504.109C510.923 0.666792 516.269 2.75049 520.146 6.91788C524.079 11.0853 526.212 15.6694 526.544 20.6703C526.6 20.9481 526.628 21.2259 526.628 21.5038C526.628 21.726 526.628 21.9761 526.628 22.2539C526.628 26.3102 525.326 30.0608 522.722 33.5059C520.174 36.9509 516.13 39.1735 510.59 40.1737V40.7571L514.163 41.5073C514.496 41.5628 514.828 41.6462 515.161 41.7573C515.548 41.8684 515.936 42.0073 516.324 42.174C518.207 42.8408 519.952 43.8132 521.559 45.0912C523.165 46.3136 524.107 47.5916 524.384 48.9252C524.439 49.0363 524.467 49.1475 524.467 49.2586C524.467 49.3697 524.467 49.4809 524.467 49.592C524.467 49.7031 524.439 49.8976 524.384 50.1754C524.384 50.4533 524.384 50.7867 524.384 51.1756C524.384 51.509 524.356 51.8702 524.301 52.2591C524.301 52.5925 524.301 52.9537 524.301 53.3427C524.301 53.3982 524.301 53.4538 524.301 53.5093C524.301 53.5649 524.301 53.6205 524.301 53.676C524.301 54.5651 524.356 55.3708 524.467 56.0931C524.578 56.8155 524.827 57.2322 525.215 57.3433C525.326 57.3989 525.409 57.4545 525.464 57.51C525.575 57.51 525.686 57.51 525.797 57.51C526.572 57.7879 527.265 58.0935 527.874 58.4269C528.483 58.7603 528.788 59.177 528.788 59.6771V59.7604ZM502.53 33.7559V9.41832C502.53 8.36258 502.032 7.58466 501.035 7.08458C500.093 6.58449 499.04 6.33444 497.877 6.33444C496.714 6.33444 495.661 6.61227 494.72 7.16792C493.778 7.66801 493.307 8.41814 493.307 9.41832C493.307 9.64058 493.39 9.83506 493.556 10.0018C493.723 10.1684 493.916 10.3351 494.138 10.5018C494.138 10.5018 494.138 10.5296 494.138 10.5852C494.193 10.5852 494.221 10.5852 494.221 10.5852C494.498 10.7519 494.72 10.9464 494.886 11.1686C495.107 11.3353 495.218 11.5576 495.218 11.8354V31.0888C495.218 31.311 495.107 31.5333 494.886 31.7556C494.72 31.9778 494.526 32.1723 494.304 32.339C494.027 32.5057 493.778 32.7002 493.556 32.9224C493.39 33.0891 493.307 33.3114 493.307 33.5892C493.307 34.6449 493.778 35.4229 494.72 35.9229C495.661 36.3675 496.686 36.5897 497.794 36.5897C497.849 36.5897 497.877 36.5897 497.877 36.5897C497.933 36.5897 497.988 36.5897 498.043 36.5897C499.151 36.5342 500.176 36.2563 501.118 35.7562C502.06 35.2562 502.53 34.5894 502.53 33.7559Z" fill="#FF7A00"/>
<path d="M228.521 164.292C226.981 173.038 222.679 179.996 215.614 185.168C208.549 190.34 200.443 192.879 191.295 192.785C190.661 192.785 190.027 192.785 189.393 192.785C188.849 192.785 188.261 192.738 187.627 192.644C187.264 192.644 186.857 192.597 186.404 192.503C186.042 192.503 185.634 192.456 185.181 192.362C180.652 191.891 176.305 190.951 172.138 189.541C167.972 188.13 164.938 185.685 163.036 182.206C162.854 181.924 162.719 181.407 162.628 180.654C162.537 179.808 162.492 178.915 162.492 177.974C162.492 177.222 162.492 176.517 162.492 175.859C162.583 175.2 162.673 174.683 162.764 174.307C163.217 172.708 164.575 171.392 166.84 170.358C169.195 169.323 171.685 168.806 174.312 168.806C174.493 168.806 174.674 168.806 174.856 168.806C175.127 168.806 175.354 168.806 175.535 168.806C178.977 168.994 181.649 170.028 183.551 171.909C185.453 173.79 186.857 175.812 187.763 177.974C188.034 178.633 188.261 179.291 188.442 179.949C188.623 180.607 188.804 181.219 188.985 181.783C189.257 183.005 189.71 183.899 190.344 184.463C191.068 184.933 191.884 185.168 192.789 185.168C193.152 185.168 193.514 185.121 193.876 185.027C194.329 184.933 194.737 184.839 195.099 184.745C196.639 184.087 198.043 182.958 199.311 181.36C200.669 179.761 201.349 178.021 201.349 176.141C201.258 175.576 201.122 175.059 200.941 174.589C200.851 174.025 200.715 173.508 200.534 173.038C199.356 170.028 197.273 167.066 194.284 164.151C191.295 161.236 188.08 158.368 184.638 155.547C183.37 154.419 182.056 153.337 180.698 152.303C179.339 151.174 178.071 150.093 176.894 149.059C172.908 145.673 169.693 141.207 167.247 135.659C164.892 130.017 163.579 124.234 163.307 118.309C163.307 118.027 163.307 117.745 163.307 117.463C163.307 117.087 163.307 116.758 163.307 116.476C163.307 107.824 166.025 100.02 171.459 93.061C176.984 86.1024 186.087 82.6232 198.767 82.6232C200.217 82.6232 201.756 82.7642 203.387 83.0463C205.108 83.2344 206.829 83.5635 208.549 84.0337C212.988 85.2561 217.064 87.0898 220.777 89.5347C224.491 91.9796 226.347 94.6596 226.347 97.5747C226.347 99.8315 225.17 101.665 222.815 103.076C220.46 104.486 217.879 105.239 215.071 105.333C214.98 105.333 214.844 105.333 214.663 105.333C214.573 105.333 214.482 105.333 214.392 105.333C212.489 105.333 210.723 105.003 209.093 104.345C207.463 103.687 206.195 102.606 205.289 101.101C205.017 100.631 204.791 100.161 204.609 99.6904C204.428 99.1262 204.292 98.6091 204.202 98.1389C204.202 97.9508 204.157 97.8098 204.066 97.7157C204.066 97.5277 204.021 97.3396 203.93 97.1515C203.84 96.4933 203.704 95.882 203.523 95.3178C203.341 94.6596 203.07 94.0954 202.707 93.6252C202.073 92.8729 201.213 92.3087 200.126 91.9326C199.13 91.5564 198.043 91.3684 196.865 91.3684C196.775 91.3684 196.684 91.3684 196.594 91.3684C196.594 91.3684 196.548 91.3684 196.458 91.3684C193.922 91.4624 191.748 92.3557 189.936 94.0484C188.215 95.647 188.351 97.4806 190.344 99.5494C190.525 99.7375 190.706 99.9255 190.887 100.114C191.068 100.302 191.295 100.49 191.567 100.678C195.009 104.157 198.405 107.495 201.756 110.693C205.108 113.796 208.278 116.852 211.267 119.861C216.429 125.315 220.686 130.91 224.038 136.646C227.48 142.288 229.201 148.824 229.201 156.252C229.201 157.475 229.155 158.791 229.065 160.202C228.974 161.518 228.793 162.882 228.521 164.292Z" fill="#FF7A00"/>
<path d="M330.877 185.591C330.877 186.72 330.288 187.66 329.11 188.412C327.933 189.258 326.574 189.682 325.035 189.682L288.352 189.823C286.631 189.729 285.227 189.258 284.14 188.412C283.053 187.66 282.51 186.673 282.51 185.45C282.51 184.51 283.053 183.616 284.14 182.77C285.227 181.924 286.631 181.501 288.352 181.501L289.031 180.654V132.979H271.369V180.795L272.592 181.642C274.131 181.642 275.49 182.065 276.667 182.911C277.845 183.757 278.434 184.651 278.434 185.591C278.434 186.814 277.845 187.801 276.667 188.553C275.49 189.4 274.131 189.823 272.592 189.823L235.909 189.964C234.188 189.87 232.784 189.4 231.697 188.553C230.61 187.801 230.067 186.814 230.067 185.591C230.067 184.651 230.61 183.757 231.697 182.911C232.784 182.065 234.188 181.642 235.909 181.642L236.86 180.795V94.7536L235.773 93.9073C234.143 93.9073 232.739 93.5312 231.561 92.7789C230.474 92.0266 229.931 91.0393 229.931 89.8168C229.931 88.6884 230.474 87.748 231.561 86.9958C232.739 86.1495 234.143 85.7263 235.773 85.7263H272.456C274.086 85.7263 275.445 86.1495 276.532 86.9958C277.709 87.748 278.298 88.6884 278.298 89.8168C278.298 91.0393 277.709 92.0266 276.532 92.7789C275.445 93.5312 274.086 93.9073 272.456 93.9073L271.369 94.7536V125.926H289.031V94.6126L287.944 93.9073C286.495 93.9073 285.182 93.5312 284.004 92.7789C282.827 92.0266 282.238 91.0393 282.238 89.8168C282.238 88.5944 282.827 87.607 284.004 86.8547C285.182 86.1024 286.495 85.7263 287.944 85.7263H324.627C326.348 85.7263 327.752 86.1024 328.839 86.8547C329.926 87.607 330.469 88.5944 330.469 89.8168C330.469 91.0393 329.926 92.0266 328.839 92.7789C327.752 93.5312 326.348 93.9073 324.627 93.9073L323.676 94.6126V180.654L325.035 181.501C326.574 181.501 327.933 181.924 329.11 182.77C330.288 183.616 330.877 184.51 330.877 185.45V185.591Z" fill="#FF7A00"/>
<path d="M432.554 137.633C432.554 152.679 428.07 165.562 419.103 176.282C410.136 187.002 399.313 192.362 386.632 192.362C373.861 192.362 362.992 187.002 354.025 176.282C345.058 165.562 340.575 152.679 340.575 137.633C340.575 122.4 345.058 109.423 354.025 98.7031C362.992 87.9831 373.861 82.6232 386.632 82.6232C399.313 82.6232 410.136 87.9831 419.103 98.7031C428.07 109.423 432.554 122.4 432.554 137.633ZM395.735 177.692C395.735 177.222 395.554 176.846 395.192 176.564C394.92 176.188 394.603 175.859 394.24 175.576C393.788 175.294 393.38 174.965 393.018 174.589C392.746 174.213 392.61 173.837 392.61 173.461V97.9978C392.61 96.2112 391.795 94.8947 390.165 94.0484C388.625 93.2021 386.859 92.7789 384.866 92.7789C384.775 92.7789 384.685 92.7789 384.594 92.7789C384.594 92.7789 384.549 92.7789 384.458 92.7789C382.737 92.8729 381.107 93.3431 379.567 94.1894C378.118 95.0357 377.394 96.3052 377.394 97.9978C377.394 98.1859 377.439 98.421 377.529 98.7031C377.62 98.8912 377.756 99.0792 377.937 99.2673C378.028 99.4554 378.163 99.6905 378.345 99.9726C378.616 100.161 378.843 100.349 379.024 100.537C379.477 100.913 379.839 101.242 380.111 101.524C380.473 101.806 380.654 101.947 380.654 101.947V177.833C380.654 179.338 381.424 180.513 382.964 181.36C384.504 182.112 386.179 182.535 387.991 182.629C388.081 182.629 388.127 182.629 388.127 182.629C388.217 182.629 388.308 182.629 388.398 182.629C390.3 182.629 391.976 182.253 393.425 181.501C394.965 180.654 395.735 179.385 395.735 177.692Z" fill="#FF7A00"/>
<path d="M529.706 120.566C529.706 130.064 526.083 138.245 518.837 145.109C511.591 151.974 502.896 155.406 492.751 155.406H477.535V180.654L479.029 181.501C480.569 181.501 481.928 181.924 483.105 182.77C484.283 183.616 484.871 184.51 484.871 185.45C484.871 186.673 484.283 187.707 483.105 188.553C481.928 189.4 480.569 189.823 479.029 189.823L442.346 189.964C440.625 189.87 439.222 189.4 438.135 188.553C437.138 187.707 436.64 186.673 436.64 185.45C436.64 184.51 437.138 183.616 438.135 182.77C439.222 181.924 440.625 181.501 442.346 181.501L443.569 180.654V94.7536L442.211 93.9073C440.58 93.9073 439.176 93.5312 437.999 92.7789C436.912 91.9326 436.368 90.8982 436.368 89.6758C436.368 88.5473 436.912 87.56 437.999 86.7137C439.176 85.8673 440.58 85.4442 442.211 85.4442H492.887C503.032 85.4442 511.682 88.8765 518.837 95.741C526.083 102.606 529.706 110.881 529.706 120.566ZM490.17 141.583V100.255C490.17 98.468 489.355 97.1515 487.724 96.3052C486.185 95.4589 484.464 95.0357 482.562 95.0357C480.66 95.0357 478.939 95.5059 477.399 96.4463C475.859 97.2926 475.089 98.562 475.089 100.255C475.089 100.631 475.225 100.96 475.497 101.242C475.769 101.524 476.086 101.806 476.448 102.088C476.538 102.088 476.584 102.088 476.584 102.088C476.584 102.088 476.629 102.135 476.72 102.229C477.082 102.511 477.399 102.794 477.671 103.076C478.033 103.358 478.214 103.734 478.214 104.204V137.069C478.214 137.445 478.033 137.822 477.671 138.198C477.399 138.574 477.082 138.903 476.72 139.185C476.267 139.467 475.859 139.796 475.497 140.172C475.225 140.454 475.089 140.831 475.089 141.301C475.089 143.087 475.859 144.404 477.399 145.25C478.939 146.003 480.614 146.379 482.426 146.379C482.516 146.379 482.562 146.379 482.562 146.379C482.652 146.379 482.743 146.379 482.833 146.379C484.645 146.285 486.321 145.814 487.86 144.968C489.4 144.122 490.17 142.993 490.17 141.583Z" fill="#FF7A00"/>
<circle cx="581.765" cy="174.478" r="19.5223" fill="#FF7A00"/>
</g>
</svg>
