<svg width="32" height="32" viewBox="0 0 32 32" fill="none" xmlns="http://www.w3.org/2000/svg">
<path fill-rule="evenodd" clip-rule="evenodd" d="M11.7803 7.98693C12.5205 6.60147 14.0077 5.63635 15.7605 5.63635C17.5133 5.63635 19.0004 6.60147 19.7406 7.98693L15.7605 7.98693H15.7604L11.7803 7.98693ZM22.1133 8.71682C22.0617 8.46793 21.9953 8.22432 21.915 7.98693C21.0596 5.45953 18.6274 3.63635 15.7605 3.63635C12.8936 3.63635 10.4613 5.45953 9.60599 7.98693C9.52565 8.22433 9.45922 8.46793 9.40765 8.71682H3.42869C3.10567 8.71682 2.86742 9.01853 2.94232 9.33275L7.24526 27.3845C7.29893 27.6097 7.50015 27.7686 7.73163 27.7686H23.7894C24.0209 27.7686 24.2221 27.6097 24.2758 27.3845L28.5787 9.33275C28.6536 9.01853 28.4154 8.71682 28.0923 8.71682H22.1133ZM9.27797 9.98693H4.35389L8.19813 26.1144C8.25181 26.3396 8.45302 26.4985 8.6845 26.4985H22.8365C23.068 26.4985 23.2692 26.3396 23.3229 26.1144L27.1672 9.98693H11.278H9.27797Z" fill="white"/>
</svg>
