<svg width="69" height="69" viewBox="0 0 69 69" fill="none" xmlns="http://www.w3.org/2000/svg">
<path d="M56.6572 16.1916C52.8139 10.7657 45.3533 9.29621 39.8144 13.1395C39.2492 13.5917 39.1362 14.383 39.4753 14.9482C39.9275 15.5134 40.7187 15.6264 41.2839 15.2873C45.5794 12.2352 51.5705 13.3656 54.6225 17.6611C55.8659 19.4697 56.4311 21.5044 56.3181 23.6522C56.3181 24.3304 56.7703 25.0086 57.5615 25.0086C57.6746 25.0086 57.7876 25.0086 58.0137 25.0086C58.5789 24.8956 58.918 24.4434 58.918 23.8782C59.031 21.0523 58.2398 18.3393 56.6572 16.1916Z" fill="#444444"/>
<path d="M55.301 27.2694C54.6228 28.7389 53.4924 29.9823 52.249 30.8866C51.6838 31.3388 51.5708 32.1301 51.9099 32.6953C52.249 33.1474 52.8142 33.3735 53.2663 33.1474C53.3794 33.1474 53.4924 33.0344 53.6055 32.9213C55.301 31.7909 56.6575 30.2084 57.5618 28.3998C57.9009 27.7215 57.6749 27.0433 56.9966 26.7042C56.4314 26.4781 55.6402 26.7042 55.301 27.2694Z" fill="#444444"/>
<path d="M64.57 17.7741C61.744 7.82664 51.3444 1.94861 41.397 4.66155C35.1799 6.35713 30.3192 11.1048 28.3975 17.2089L2.85073 26.5911C2.28553 26.8172 1.83338 27.4954 2.05945 28.1737L5.56366 40.9471C5.78974 41.6253 6.35494 41.9644 7.03317 41.8514L33.5973 36.6516C36.1972 39.0254 39.4754 40.6079 42.8665 41.2862V41.3992L47.9533 59.9376C49.1967 64.3461 53.7183 66.946 58.2398 65.7026C62.6483 64.4592 65.2482 59.9376 64.0048 55.416L58.805 36.7646C64.2309 32.2431 66.4917 24.7825 64.57 17.7741ZM56.5442 35.5212C56.0921 35.8603 55.979 36.3125 56.0921 36.8777L61.518 56.2073C62.4223 59.2594 60.6136 62.4245 57.4486 63.3288C54.3965 64.2331 51.2314 62.4245 50.3271 59.2594L48.4054 51.6858L51.1184 50.8945C51.7966 50.6684 52.2488 49.9902 52.0227 49.3119C51.7966 48.6337 51.1184 48.1815 50.4401 48.4076L47.7272 49.1989L47.3881 48.0685L50.101 47.2772C50.7793 47.0512 51.2314 46.3729 51.0053 45.6947C50.7793 45.0165 50.101 44.5643 49.4228 44.7904L46.7098 45.5817L45.5795 41.5122C47.5011 41.6253 49.4228 41.3992 51.3444 40.834C52.0227 40.6079 52.4748 39.9297 52.2488 39.2515C52.0227 38.5732 51.3444 38.1211 50.6662 38.3472C45.0143 39.9297 39.0232 38.3472 34.8408 34.2778C34.7277 34.1647 34.7277 34.1647 34.6147 34.0517C34.5016 34.0517 34.5016 33.9386 34.3886 33.9386C34.2756 33.9386 34.2756 33.9386 34.1625 33.9386C34.1625 33.9386 34.1625 33.9386 34.0495 33.9386C33.9364 33.9386 33.9364 33.9386 33.8234 33.9386H33.7104H33.5973L7.59836 39.0254L4.65935 28.5128L29.641 19.2436H29.754H29.867L29.9801 19.1305C29.9801 19.1305 29.9801 19.1305 30.0931 19.1305L30.2062 19.0175C30.2062 19.0175 30.2062 19.0175 30.3192 18.9045L30.4322 18.7914C30.4322 18.7914 30.4322 18.7914 30.4322 18.6784C30.4322 18.6784 30.4322 18.5653 30.5453 18.4523C32.2409 13.0264 36.5363 8.61791 42.0753 7.1484C50.6662 4.77459 59.7093 9.86134 62.0831 18.4523C63.7787 24.7825 61.631 31.4518 56.5442 35.5212Z" fill="#444444"/>
<path d="M25.2325 32.0169L9.97228 34.8429C9.29405 34.956 8.84189 35.6342 8.95493 36.3124C9.06797 36.9907 9.74621 37.4428 10.4244 37.3298L25.6847 34.5038H25.7977C26.476 34.2777 26.8151 33.7125 26.7021 33.0343C26.589 32.3561 25.9108 31.9039 25.2325 32.0169Z" fill="#444444"/>
<path d="M51.5706 22.0697C50.7793 19.3567 47.9534 17.6611 45.2404 18.4524C42.5275 19.2437 40.8319 22.0697 41.6232 24.7826C42.4145 27.4955 45.2404 29.1911 47.9534 28.3998C50.6663 27.6086 52.3619 24.7826 51.5706 22.0697ZM47.2751 25.913C45.9187 26.2521 44.4492 25.4608 43.997 24.1044C43.6579 22.7479 44.4492 21.2784 45.8056 20.8262C47.1621 20.4871 48.6316 21.2784 49.0838 22.6348C49.5359 24.1044 48.6316 25.5739 47.2751 25.913Z" fill="#444444"/>
</svg>
